<?xml version="1.0" encoding="utf-8"?>
<!-- Generator: Adobe Illustrator 16.0.0, SVG Export Plug-In . SVG Version: 6.00 Build 0)  -->
<!DOCTYPE svg PUBLIC "-//W3C//DTD SVG 1.1//EN" "http://www.w3.org/Graphics/SVG/1.1/DTD/svg11.dtd">
<svg version="1.1" id="图层_1" xmlns="http://www.w3.org/2000/svg" xmlns:xlink="http://www.w3.org/1999/xlink" x="0px" y="0px"
	 width="842px" height="1191px" viewBox="0 0 842 1191" enable-background="new 0 0 842 1191" xml:space="preserve">
<polygon stroke="#FFFFFF" points="475.196,334.825 449.729,349.528 424.261,334.825 424.261,305.417 449.729,290.714 
	475.196,305.417 "/>
<polygon stroke="#FFFFFF" points="463.377,390.725 439.235,404.663 415.093,390.725 415.093,362.848 439.235,348.91 
	463.377,362.848 "/>
<polygon stroke="#FFFFFF" points="484.812,712.946 461.913,726.166 439.016,712.946 439.016,686.506 461.913,673.286 
	484.812,686.506 "/>
<polygon stroke="#FFFFFF" points="429.146,650.802 407.852,663.096 386.559,650.802 386.559,626.215 407.852,613.921 
	429.146,626.215 "/>
<polygon stroke="#FFFFFF" points="528.086,390.213 508.721,401.394 489.355,390.213 489.355,367.853 508.721,356.672 
	528.086,367.853 "/>
<polygon stroke="#FFFFFF" points="621.176,370.837 602.174,381.809 583.171,370.837 583.171,348.895 602.174,337.924 
	621.176,348.895 "/>
<polygon stroke="#FFFFFF" points="469.425,435.89 450.957,446.552 432.489,435.89 432.489,414.565 450.957,403.903 469.425,414.565 
	"/>
<polygon stroke="#FFFFFF" points="557.623,366.697 539.275,377.29 520.927,366.697 520.927,345.51 539.275,334.917 557.623,345.51 
	"/>
<polygon stroke="#FFFFFF" points="439.949,691.003 421.745,701.514 403.54,691.003 403.54,669.982 421.745,659.472 439.949,669.982 
	"/>
<polygon stroke="#FFFFFF" points="385.993,579.351 367.899,589.798 349.805,579.351 349.805,558.457 367.899,548.011 
	385.993,558.457 "/>
<polygon stroke="#FFFFFF" points="617.556,415.272 600.251,425.263 582.946,415.272 582.946,395.291 600.251,385.299 
	617.556,395.291 "/>
<polygon stroke="#FFFFFF" points="609.162,340.823 591.909,350.784 574.656,340.823 574.656,320.901 591.909,310.94 
	609.162,320.901 "/>
<polygon stroke="#FFFFFF" points="610.246,742.695 593.189,752.543 576.133,742.695 576.133,722.999 593.189,713.151 
	610.246,722.999 "/>
<polygon stroke="#FFFFFF" points="542.282,756.184 525.454,765.899 508.627,756.184 508.627,736.753 525.454,727.038 
	542.282,736.753 "/>
<polygon stroke="#FFFFFF" points="611.406,294.266 595.327,303.549 579.248,294.266 579.248,275.7 595.327,266.417 611.406,275.7 
	"/>
<polygon stroke="#FFFFFF" points="670.794,507.805 654.762,517.061 638.73,507.805 638.73,489.294 654.762,480.038 670.794,489.294 
	"/>
<polygon stroke="#FFFFFF" points="687.688,439.317 671.871,448.45 656.053,439.317 656.053,421.053 671.871,411.92 687.688,421.053 
	"/>
<polygon stroke="#FFFFFF" points="295.963,619.951 280.532,628.86 265.101,619.951 265.101,602.133 280.532,593.224 
	295.963,602.133 "/>
<polygon stroke="#FFFFFF" points="362.555,523.318 347.383,532.078 332.21,523.318 332.21,505.799 347.383,497.039 362.555,505.799 
	"/>
<polygon stroke="#FFFFFF" points="398.295,400.326 383.209,409.035 368.123,400.326 368.123,382.906 383.209,374.196 
	398.295,382.906 "/>
<polygon stroke="#FFFFFF" points="446.456,284.886 431.793,293.353 417.129,284.886 417.129,267.954 431.793,259.488 
	446.456,267.954 "/>
<polygon stroke="#FFFFFF" points="570.339,617.405 555.734,625.837 541.13,617.405 541.13,600.542 555.734,592.11 570.339,600.542 
	"/>
<polygon stroke="#FFFFFF" points="252.932,605.232 238.588,613.514 224.244,605.232 224.244,588.67 238.588,580.389 252.932,588.67 
	"/>
<polygon stroke="#FFFFFF" points="529.25,350.88 515.009,359.103 500.768,350.88 500.768,334.436 515.009,326.213 529.25,334.436 
	"/>
<polygon stroke="#FFFFFF" points="481.23,366.344 467.052,374.53 452.873,366.344 452.873,349.972 467.052,341.786 481.23,349.972 
	"/>
<polygon stroke="#FFFFFF" points="551.336,751.785 537.223,759.933 523.11,751.785 523.11,735.488 537.223,727.34 551.336,735.488 
	"/>
<polygon stroke="#FFFFFF" points="655.298,404.765 641.19,412.909 627.083,404.765 627.083,388.475 641.19,380.33 655.298,388.475 
	"/>
<polygon stroke="#FFFFFF" points="331.001,681.142 316.954,689.251 302.907,681.142 302.907,664.921 316.954,656.812 
	331.001,664.921 "/>
<polygon stroke="#FFFFFF" points="392.455,714.541 378.94,722.343 365.427,714.541 365.427,698.936 378.94,691.134 392.455,698.936 
	"/>
<polygon stroke="#FFFFFF" points="382.217,475.029 368.897,482.719 355.579,475.029 355.579,459.649 368.897,451.96 
	382.217,459.649 "/>
<polygon stroke="#FFFFFF" points="472.953,744.678 460.551,751.839 448.147,744.678 448.147,730.355 460.551,723.195 
	472.953,730.355 "/>
<polygon stroke="#FFFFFF" points="726.164,386.125 714.337,392.953 702.511,386.125 702.511,372.468 714.337,365.64 
	726.164,372.468 "/>
<polygon stroke="#FFFFFF" points="185.388,559.199 173.582,566.015 161.776,559.199 161.776,545.566 173.582,538.75 
	185.388,545.566 "/>
<polygon stroke="#FFFFFF" points="380.154,620.775 368.456,627.529 356.759,620.775 356.759,607.269 368.456,600.515 
	380.154,607.269 "/>
<polygon stroke="#FFFFFF" points="143.006,581.292 131.551,587.905 120.096,581.292 120.096,568.064 131.551,561.451 
	143.006,568.064 "/>
<polygon stroke="#FFFFFF" points="210.958,574.563 199.559,581.145 188.161,574.563 188.161,561.402 199.559,554.821 
	210.958,561.402 "/>
<polygon stroke="#FFFFFF" points="366.808,451.621 355.447,458.18 344.088,451.621 344.088,438.504 355.447,431.945 
	366.808,438.504 "/>
<polygon stroke="#FFFFFF" points="314.859,652.96 303.591,659.466 292.322,652.96 292.322,639.948 303.591,633.442 314.859,639.948 
	"/>
<polygon stroke="#FFFFFF" points="390.485,530.173 380.332,536.035 370.18,530.173 370.18,518.45 380.332,512.589 390.485,518.45 
	"/>
<polygon stroke="#FFFFFF" points="416.063,739.391 405.968,745.219 395.873,739.391 395.873,727.733 405.968,721.905 
	416.063,727.733 "/>
<polygon stroke="#FFFFFF" points="392.984,438.156 382.894,443.983 372.802,438.156 372.802,426.504 382.894,420.678 
	392.984,426.504 "/>
<polygon stroke="#FFFFFF" points="666.917,437.264 657.054,442.958 647.19,437.264 647.19,425.875 657.054,420.181 666.917,425.875 
	"/>
<polygon stroke="#FFFFFF" points="702.81,459.989 693.065,465.614 683.321,459.989 683.321,448.737 693.065,443.112 702.81,448.737 
	"/>
<polygon stroke="#FFFFFF" points="710.867,406.189 701.163,411.792 691.459,406.189 691.459,394.984 701.163,389.381 
	710.867,394.984 "/>
<polygon stroke="#FFFFFF" points="398.646,510.297 389.976,515.303 381.306,510.297 381.306,500.285 389.976,495.279 
	398.646,500.285 "/>
<polygon stroke="#FFFFFF" points="394.16,603.725 385.873,608.51 377.586,603.725 377.586,594.155 385.873,589.371 394.16,594.155 
	"/>
<polygon stroke="#FFFFFF" points="415.709,486.479 408.034,490.91 400.359,486.479 400.359,477.616 408.034,473.186 
	415.709,477.616 "/>
<polygon stroke="#FFFFFF" points="438.155,447.509 433.569,450.156 428.984,447.509 428.984,442.214 433.569,439.565 
	438.155,442.214 "/>
<polygon stroke="#FFFFFF" points="408.567,610.172 405.632,611.867 402.695,610.172 402.695,606.782 405.632,605.087 
	408.567,606.782 "/>
<polygon stroke="#FFFFFF" points="638.405,701.613 635.72,703.163 633.035,701.613 633.035,698.513 635.72,696.962 638.405,698.513 
	"/>
<polygon stroke="#FFFFFF" points="540.811,321.203 538.542,322.513 536.272,321.203 536.272,318.583 538.542,317.274 
	540.811,318.583 "/>
<polygon stroke="#FFFFFF" points="246.491,623.116 244.382,624.334 242.273,623.116 242.273,620.682 244.382,619.464 
	246.491,620.682 "/>
<polygon stroke="#FFFFFF" points="545.758,413.603 543.691,414.795 541.626,413.603 541.626,411.217 543.691,410.024 
	545.758,411.217 "/>
<polygon stroke="#FFFFFF" points="711.71,433.264 709.75,434.396 707.79,433.264 707.79,431 709.75,429.868 711.71,431 "/>
<polygon stroke="#FFFFFF" points="644.79,403.241 643.063,404.238 641.336,403.241 641.336,401.246 643.063,400.249 644.79,401.246 
	"/>
<polygon stroke="#FFFFFF" points="371.344,411.446 369.652,412.423 367.96,411.446 367.96,409.493 369.652,408.516 371.344,409.493 
	"/>
<polygon stroke="#FFFFFF" points="470.142,777.026 469.627,777.323 469.112,777.026 469.112,776.433 469.627,776.136 
	470.142,776.433 "/>
<polygon stroke="#FFFFFF" points="741.162,374.053 740.978,374.16 740.792,374.053 740.792,373.839 740.978,373.733 
	741.162,373.839 "/>
<polygon stroke="#FFFFFF" points="585.999,359.828 585.834,359.923 585.668,359.828 585.668,359.637 585.834,359.542 
	585.999,359.637 "/>
<polygon stroke="#FFFFFF" points="654.023,634.885 642.218,641.7 630.412,634.885 630.412,621.252 642.218,614.436 654.023,621.252 
	"/>
<polygon stroke="#FFFFFF" points="609.162,631.759 606.477,633.309 603.792,631.759 603.792,628.658 606.477,627.107 
	609.162,628.658 "/>
</svg>
