<?xml version="1.0" standalone="no"?>
<!DOCTYPE svg PUBLIC "-//W3C//DTD SVG 1.1//EN" 
"http://www.w3.org/Graphics/SVG/1.1/DTD/svg11.dtd">
<svg width="842px" height="1191px" version="1.1" xmlns="http://www.w3.org/2000/svg">
<polygon points="507.9746,737.7434 483.7666,751.7199 459.5586,737.7434 459.5586,709.7904 483.7666,695.8139 507.9746,709.7904 " style="fill:black;stroke:white;stroke-width:1"/>
<polygon points="696.9416,500.7419 672.7974,514.6816 648.6531,500.7419 648.6531,472.8626 672.7974,458.9229 696.9416,472.8626 " style="fill:black;stroke:white;stroke-width:1"/>
<polygon points="392.9319,642.1926 370.6807,655.0394 348.4296,642.1926 348.4296,616.4993 370.6807,603.6525 392.9319,616.4993 " style="fill:black;stroke:white;stroke-width:1"/>
<polygon points="493.8543,385.4058 472.4863,397.7426 451.1183,385.4058 451.1183,360.7322 472.4863,348.3954 493.8543,360.7322 " style="fill:black;stroke:white;stroke-width:1"/>
<polygon points="248.3798,590.1576 227.7997,602.0395 207.2195,590.1576 207.2195,566.3937 227.7997,554.5118 248.3798,566.3937 " style="fill:black;stroke:white;stroke-width:1"/>
<polygon points="400.2083,560.1018 381.1944,571.0795 362.1804,560.1018 362.1804,538.1464 381.1944,527.1687 400.2083,538.1464 " style="fill:black;stroke:white;stroke-width:1"/>
<polygon points="548.1179,391.348 529.6563,402.0068 511.1946,391.348 511.1946,370.0304 529.6563,359.3716 548.1179,370.0304 " style="fill:black;stroke:white;stroke-width:1"/>
<polygon points="539.777,354.3893 521.6776,364.839 503.5781,354.3893 503.5781,333.4898 521.6776,323.04 539.777,333.4898 " style="fill:black;stroke:white;stroke-width:1"/>
<polygon points="625.2102,406.0724 607.1193,416.5172 589.0284,406.0724 589.0284,385.1829 607.1193,374.7381 625.2102,385.1829 " style="fill:black;stroke:white;stroke-width:1"/>
<polygon points="466.5289,317.7519 448.6177,328.093 430.7066,317.7519 430.7066,297.0699 448.6177,286.7289 466.5289,297.0699 " style="fill:black;stroke:white;stroke-width:1"/>
<polygon points="372.0317,513.7849 354.4419,523.9404 336.8521,513.7849 336.8521,493.4739 354.4419,483.3185 372.0317,493.4739 " style="fill:black;stroke:white;stroke-width:1"/>
<polygon points="445.5795,432.0834 428.7062,441.8252 411.8329,432.0834 411.8329,412.5998 428.7062,402.858 445.5795,412.5998 " style="fill:black;stroke:white;stroke-width:1"/>
<polygon points="342.1771,681.4663 325.5159,691.0856 308.8547,681.4663 308.8547,662.2277 325.5159,652.6083 342.1771,662.2277 " style="fill:black;stroke:white;stroke-width:1"/>
<polygon points="575.4613,742.1181 558.9276,751.6639 542.3939,742.1181 542.3939,723.0267 558.9276,713.4809 575.4613,723.0267 " style="fill:black;stroke:white;stroke-width:1"/>
<polygon points="588.7679,642.516 572.2512,652.0519 555.7344,642.516 555.7344,623.4441 572.2512,613.9081 588.7679,623.4441 " style="fill:black;stroke:white;stroke-width:1"/>
<polygon points="457.9032,688.253 441.8582,697.5166 425.8131,688.253 425.8131,669.7258 441.8582,660.4622 457.9032,669.7258 " style="fill:black;stroke:white;stroke-width:1"/>
<polygon points="656.5218,432.2046 641.4006,440.9348 626.2794,432.2046 626.2794,414.7441 641.4006,406.0139 656.5218,414.7441 " style="fill:black;stroke:white;stroke-width:1"/>
<polygon points="375.512,476.1014 360.5112,484.7621 345.5104,476.1014 345.5104,458.78 360.5112,450.1193 375.512,458.78 " style="fill:black;stroke:white;stroke-width:1"/>
<polygon points="264.1012,626.6154 249.3103,635.1549 234.5195,626.6154 234.5195,609.5364 249.3103,600.9968 264.1012,609.5364 " style="fill:black;stroke:white;stroke-width:1"/>
<polygon points="537.9689,747.7052 523.2537,756.201 508.5384,747.7052 508.5384,730.7134 523.2537,722.2175 537.9689,730.7134 " style="fill:black;stroke:white;stroke-width:1"/>
<polygon points="714.8659,412.1457 700.156,420.6385 685.4461,412.1457 685.4461,395.1602 700.156,386.6674 714.8659,395.1602 " style="fill:black;stroke:white;stroke-width:1"/>
<polygon points="450.7132,376.7286 436.0345,385.2033 421.3559,376.7286 421.3559,359.7791 436.0345,351.3044 450.7132,359.7791 " style="fill:black;stroke:white;stroke-width:1"/>
<polygon points="609.162,352.2954 594.4888,360.7669 579.8156,352.2954 579.8156,335.3522 594.4888,326.8806 609.162,335.3522 " style="fill:black;stroke:white;stroke-width:1"/>
<polygon points="629.4326,716.5333 615.2513,724.7209 601.0701,716.5333 601.0701,700.1582 615.2513,691.9706 629.4326,700.1582 " style="fill:black;stroke:white;stroke-width:1"/>
<polygon points="683.8344,456.9164 669.8082,465.0144 655.782,456.9164 655.782,440.7204 669.8082,432.6224 683.8344,440.7204 " style="fill:black;stroke:white;stroke-width:1"/>
<polygon points="364.7758,574.3822 351.3839,582.1141 337.9919,574.3822 337.9919,558.9185 351.3839,551.1866 364.7758,558.9185 " style="fill:black;stroke:white;stroke-width:1"/>
<polygon points="572.9088,385.0423 559.7617,392.6328 546.6146,385.0423 546.6146,369.8614 559.7617,362.2709 572.9088,369.8614 " style="fill:black;stroke:white;stroke-width:1"/>
<polygon points="717.7934,387.7766 704.8657,395.2404 691.9379,387.7766 691.9379,372.849 704.8657,365.3851 717.7934,372.849 " style="fill:black;stroke:white;stroke-width:1"/>
<polygon points="371.3307,719.3157 358.9093,726.4872 346.4879,719.3157 346.4879,704.9727 358.9093,697.8013 371.3307,704.9727 " style="fill:black;stroke:white;stroke-width:1"/>
<polygon points="383.4508,410.3982 371.0691,417.5468 358.6873,410.3982 358.6873,396.1009 371.0691,388.9523 383.4508,396.1009 " style="fill:black;stroke:white;stroke-width:1"/>
<polygon points="426.6745,294.5708 414.7265,301.469 402.7784,294.5708 402.7784,280.7744 414.7265,273.8762 426.6745,280.7744 " style="fill:black;stroke:white;stroke-width:1"/>
<polygon points="607.4782,311.4547 595.5358,318.3497 583.5933,311.4547 583.5933,297.6648 595.5358,290.7699 607.4782,297.6648 " style="fill:black;stroke:white;stroke-width:1"/>
<polygon points="476.1328,419.6135 464.3229,426.4319 452.5131,419.6135 452.5131,405.9767 464.3229,399.1583 476.1328,405.9767 " style="fill:black;stroke:white;stroke-width:1"/>
<polygon points="439.3272,361.1677 427.7064,367.877 416.0857,361.1677 416.0857,347.7492 427.7064,341.04 439.3272,347.7492 " style="fill:black;stroke:white;stroke-width:1"/>
<polygon points="474.3257,327.3007 462.7678,333.9736 451.2099,327.3007 451.2099,313.9547 462.7678,307.2817 474.3257,313.9547 " style="fill:black;stroke:white;stroke-width:1"/>
<polygon points="400.808,444.0468 389.4237,450.6195 378.0395,444.0468 378.0395,430.9014 389.4237,424.3286 400.808,430.9014 " style="fill:black;stroke:white;stroke-width:1"/>
<polygon points="466.0076,752.3794 454.8827,758.8024 443.7578,752.3794 443.7578,739.5334 454.8827,733.1105 466.0076,739.5334 " style="fill:black;stroke:white;stroke-width:1"/>
<polygon points="421.0001,469.4433 409.9708,475.8111 398.9415,469.4433 398.9415,456.7078 409.9708,450.34 421.0001,456.7078 " style="fill:black;stroke:white;stroke-width:1"/>
<polygon points="427.0252,693.6516 416.4413,699.7622 405.8575,693.6516 405.8575,681.4304 416.4413,675.3198 427.0252,681.4304 " style="fill:black;stroke:white;stroke-width:1"/>
<polygon points="155.6667,579.2123 145.2658,585.2173 134.8649,579.2123 134.8649,567.2025 145.2658,561.1974 155.6667,567.2025 " style="fill:black;stroke:white;stroke-width:1"/>
<polygon points="181.4806,551.3136 171.2801,557.2029 161.0797,551.3136 161.0797,539.5352 171.2801,533.6459 181.4806,539.5352 " style="fill:black;stroke:white;stroke-width:1"/>
<polygon points="644.2831,404.2234 634.1334,410.0833 623.9838,404.2234 623.9838,392.5036 634.1334,386.6437 644.2831,392.5036 " style="fill:black;stroke:white;stroke-width:1"/>
<polygon points="443.0083,655.8749 433.2012,661.5371 423.394,655.8749 423.394,644.5506 433.2012,638.8884 443.0083,644.5506 " style="fill:black;stroke:white;stroke-width:1"/>
<polygon points="411.1855,732.7585 401.8197,738.1659 392.4538,732.7585 392.4538,721.9437 401.8197,716.5363 411.1855,721.9437 " style="fill:black;stroke:white;stroke-width:1"/>
<polygon points="305.1612,624.0735 296.23,629.2299 287.2989,624.0735 287.2989,613.7607 296.23,608.6043 305.1612,613.7607 " style="fill:black;stroke:white;stroke-width:1"/>
<polygon points="603.1777,277.2431 594.3368,282.3474 585.4958,277.2431 585.4958,267.0345 594.3368,261.9301 603.1777,267.0345 " style="fill:black;stroke:white;stroke-width:1"/>
<polygon points="387.1466,584.7346 380.3734,588.6451 373.6003,584.7346 373.6003,576.9135 380.3734,573.003 387.1466,576.9135 " style="fill:black;stroke:white;stroke-width:1"/>
<polygon points="605.9056,294.4417 599.696,298.0268 593.4865,294.4417 593.4865,287.2714 599.696,283.6863 605.9056,287.2714 " style="fill:black;stroke:white;stroke-width:1"/>
<polygon points="609.8015,384.4905 604.8204,387.3663 599.8393,384.4905 599.8393,378.7388 604.8204,375.863 609.8015,378.7388 " style="fill:black;stroke:white;stroke-width:1"/>
<polygon points="293.0024,647.5385 288.9444,649.8814 284.8864,647.5385 284.8864,642.8527 288.9444,640.5098 293.0024,642.8527 " style="fill:black;stroke:white;stroke-width:1"/>
<polygon points="533.2131,714.3522 529.6786,716.3928 526.1441,714.3522 526.1441,710.2709 529.6786,708.2303 533.2131,710.2709 " style="fill:black;stroke:white;stroke-width:1"/>
<polygon points="611.1839,345.9842 607.6604,348.0185 604.1369,345.9842 604.1369,341.9156 607.6604,339.8813 611.1839,341.9156 " style="fill:black;stroke:white;stroke-width:1"/>
<polygon points="369.0149,491.4756 366.9629,492.6603 364.9109,491.4756 364.9109,489.1061 366.9629,487.9214 369.0149,489.1061 " style="fill:black;stroke:white;stroke-width:1"/>
<polygon points="588.1746,629.1228 586.2985,630.2059 584.4224,629.1228 584.4224,626.9564 586.2985,625.8733 588.1746,626.9564 " style="fill:black;stroke:white;stroke-width:1"/>
<polygon points="209.7275,537.809 207.8966,538.8661 206.0657,537.809 206.0657,535.6949 207.8966,534.6378 209.7275,535.6949 " style="fill:black;stroke:white;stroke-width:1"/>
<polygon points="739.5333,365.2378 738.9128,365.596 738.2924,365.2378 738.2924,364.5213 738.9128,364.1631 739.5333,364.5213 " style="fill:black;stroke:white;stroke-width:1"/>
<polygon points="509.2312,294.4954 508.6939,294.8056 508.1566,294.4954 508.1566,293.875 508.6939,293.5648 509.2312,293.875 " style="fill:black;stroke:white;stroke-width:1"/>
<polygon points="615.9678,418.9459 615.7364,419.0795 615.505,418.9459 615.505,418.6787 615.7364,418.5451 615.9678,418.6787 " style="fill:black;stroke:white;stroke-width:1"/>
</svg>
