<?xml version="1.0" standalone="no"?>
<!DOCTYPE svg PUBLIC "-//W3C//DTD SVG 1.1//EN" 
"http://www.w3.org/Graphics/SVG/1.1/DTD/svg11.dtd">
<svg width="800px" height="300px" version="1.1" xmlns="http://www.w3.org/2000/svg">
<polygon points="18.34965,265.1648 8.741633,270.712 -0.8663858,265.1648 -0.8663858,254.0704 8.741633,248.5232 18.34965,254.0704 " style="fill:black;stroke:white;stroke-width:1"/>
<polygon points="23.84976,20.08885 14.24203,25.63588 4.634293,20.08885 4.634293,8.994793 14.24203,3.447766 23.84976,8.994793 " style="fill:black;stroke:white;stroke-width:1"/>
<polygon points="23.84859,135.0021 14.24723,140.5455 4.645873,135.0021 4.645873,123.9154 14.24723,118.3721 23.84859,123.9154 " style="fill:black;stroke:white;stroke-width:1"/>
<polygon points="79.01482,171.7207 69.62695,177.1408 60.23907,171.7207 60.23907,160.8805 69.62695,155.4604 79.01482,160.8805 " style="fill:black;stroke:white;stroke-width:1"/>
<polygon points="41.2474,243.1361 31.93285,248.5139 22.6183,243.1361 22.6183,232.3806 31.93285,227.0028 41.2474,232.3806 " style="fill:black;stroke:white;stroke-width:1"/>
<polygon points="31.81027,206.0803 22.53542,211.4352 13.26057,206.0803 13.26057,195.3706 22.53542,190.0158 31.81027,195.3706 " style="fill:black;stroke:white;stroke-width:1"/>
<polygon points="78.98236,96.32126 70.45708,101.2433 61.9318,96.32126 61.9318,86.47711 70.45708,81.55504 78.98236,86.47711 " style="fill:black;stroke:white;stroke-width:1"/>
<polygon points="57.31803,287.2984 50.17225,291.424 43.02647,287.2984 43.02647,279.0471 50.17225,274.9215 57.31803,279.0471 " style="fill:black;stroke:white;stroke-width:1"/>
<polygon points="52.05112,143.0987 44.96936,147.1874 37.8876,143.0987 37.8876,134.9214 44.96936,130.8328 52.05112,134.9214 " style="fill:black;stroke:white;stroke-width:1"/>
<polygon points="31.37554,89.14835 24.42441,93.1616 17.47327,89.14835 17.47327,81.12188 24.42441,77.10863 31.37554,81.12188 " style="fill:black;stroke:white;stroke-width:1"/>
<polygon points="69.04709,253.9952 62.15184,257.9762 55.2566,253.9952 55.2566,246.0332 62.15184,242.0523 69.04709,246.0332 " style="fill:black;stroke:white;stroke-width:1"/>
<polygon points="42.5933,205.4852 36.26292,209.14 29.93254,205.4852 29.93254,198.1755 36.26292,194.5206 42.5933,198.1755 " style="fill:black;stroke:white;stroke-width:1"/>
<polygon points="47.70638,53.09524 42.02683,56.37432 36.34729,53.09524 36.34729,46.53706 42.02683,43.25798 47.70638,46.53706 " style="fill:black;stroke:white;stroke-width:1"/>
<polygon points="94.63732,135.9635 90.45794,138.3765 86.27856,135.9635 86.27856,131.1376 90.45794,128.7247 94.63732,131.1376 " style="fill:black;stroke:white;stroke-width:1"/>
<polygon points="18.4638,72.42874 14.29108,74.83787 10.11836,72.42874 10.11836,67.6105 14.29108,65.20138 18.4638,67.6105 " style="fill:black;stroke:white;stroke-width:1"/>
<polygon points="110.7072,26.25501 106.5639,28.64716 102.4205,26.25501 102.4205,21.4707 106.5639,19.07854 110.7072,21.4707 " style="fill:black;stroke:white;stroke-width:1"/>
<polygon points="101.9963,278.1844 98.39817,280.2617 94.80007,278.1844 94.80007,274.0297 98.39817,271.9523 101.9963,274.0297 " style="fill:black;stroke:white;stroke-width:1"/>
<polygon points="24.18788,165.7568 21.19198,167.4865 18.19608,165.7568 18.19608,162.2975 21.19198,160.5678 24.18788,162.2975 " style="fill:black;stroke:white;stroke-width:1"/>
<polygon points="42.07432,7.728258 39.26678,9.349193 36.45924,7.728258 36.45924,4.486388 39.26678,2.865453 42.07432,4.486388 " style="fill:black;stroke:white;stroke-width:1"/>
<polygon points="6.453894,225.2139 4.118594,226.5622 1.783294,225.2139 1.783294,222.5173 4.118594,221.169 6.453894,222.5173 " style="fill:black;stroke:white;stroke-width:1"/>
<polygon points="53.06042,95.04951 51.47727,95.96355 49.89412,95.04951 49.89412,93.22145 51.47727,92.30742 53.06042,93.22145 " style="fill:black;stroke:white;stroke-width:1"/>
<polygon points="118.0991,242.4924 117.092,243.0739 116.0849,242.4924 116.0849,241.3295 117.092,240.7481 118.0991,241.3295 " style="fill:black;stroke:white;stroke-width:1"/>
</svg>
