<?xml version="1.0" standalone="no"?>
<!DOCTYPE svg PUBLIC "-//W3C//DTD SVG 1.1//EN" 
"http://www.w3.org/Graphics/SVG/1.1/DTD/svg11.dtd">
<svg width="800px" height="300px" version="1.1" xmlns="http://www.w3.org/2000/svg">
<polygon points="39.69134,290.6794 26.89592,298.0668 14.1005,290.6794 14.1005,275.9045 26.89592,268.5171 39.69134,275.9045 " style="fill:black;stroke:white;stroke-width:1"/>
<polygon points="22.30716,63.98245 13.19638,69.24255 4.085608,63.98245 4.085608,53.46223 13.19638,48.20213 22.30716,53.46223 " style="fill:black;stroke:white;stroke-width:1"/>
<polygon points="28.023,21.40977 20.27158,25.88505 12.52016,21.40977 12.52016,12.45919 20.27158,7.983909 28.023,12.45919 " style="fill:black;stroke:white;stroke-width:1"/>
<polygon points="30.6752,149.9459 24.07184,153.7584 17.46849,149.9459 17.46849,142.321 24.07184,138.5086 30.6752,142.321 " style="fill:black;stroke:white;stroke-width:1"/>
<polygon points="62.24567,129.9683 55.95942,133.5977 49.67317,129.9683 49.67317,122.7096 55.95942,119.0802 62.24567,122.7096 " style="fill:black;stroke:white;stroke-width:1"/>
<polygon points="40.20321,205.5657 34.11772,209.0791 28.03223,205.5657 28.03223,198.5388 34.11772,195.0253 40.20321,198.5388 " style="fill:black;stroke:white;stroke-width:1"/>
<polygon points="21.81793,223.5571 16.20191,226.7995 10.58589,223.5571 10.58589,217.0722 16.20191,213.8298 21.81793,217.0722 " style="fill:black;stroke:white;stroke-width:1"/>
<polygon points="27.52741,247.9686 22.08748,251.1093 16.64755,247.9686 16.64755,241.6871 22.08748,238.5463 27.52741,241.6871 " style="fill:black;stroke:white;stroke-width:1"/>
<polygon points="18.63939,173.5246 13.89032,176.2664 9.141245,173.5246 9.141245,168.0408 13.89032,165.2989 18.63939,168.0408 " style="fill:black;stroke:white;stroke-width:1"/>
<polygon points="34.12514,27.95607 29.79955,30.45345 25.47395,27.95607 25.47395,22.9613 29.79955,20.46391 34.12514,22.9613 " style="fill:black;stroke:white;stroke-width:1"/>
<polygon points="113.9687,166.4866 109.8967,168.8376 105.8247,166.4866 105.8247,161.7846 109.8967,159.4336 113.9687,161.7846 " style="fill:black;stroke:white;stroke-width:1"/>
<polygon points="51.57501,80.02039 47.56076,82.33801 43.5465,80.02039 43.5465,75.38512 47.56076,73.06749 51.57501,75.38512 " style="fill:black;stroke:white;stroke-width:1"/>
<polygon points="66.46171,171.4247 62.58464,173.6632 58.70757,171.4247 58.70757,166.9479 62.58464,164.7095 66.46171,166.9479 " style="fill:black;stroke:white;stroke-width:1"/>
<polygon points="73.38716,152.1341 69.81528,154.1964 66.24341,152.1341 66.24341,148.0097 69.81528,145.9475 73.38716,148.0097 " style="fill:black;stroke:white;stroke-width:1"/>
<polygon points="22.81737,121.4635 19.42131,123.4242 16.02526,121.4635 16.02526,117.5421 19.42131,115.5814 22.81737,117.5421 " style="fill:black;stroke:white;stroke-width:1"/>
<polygon points="84.52794,242.3748 81.33524,244.2182 78.14253,242.3748 78.14253,238.6882 81.33524,236.8449 84.52794,238.6882 " style="fill:black;stroke:white;stroke-width:1"/>
<polygon points="76.07425,242.0179 73.01149,243.7862 69.94873,242.0179 69.94873,238.4814 73.01149,236.7131 76.07425,238.4814 " style="fill:black;stroke:white;stroke-width:1"/>
<polygon points="10.95611,80.40593 8.036835,82.09138 5.11756,80.40593 5.11756,77.03505 8.036835,75.3496 10.95611,77.03505 " style="fill:black;stroke:white;stroke-width:1"/>
<polygon points="47.97197,228.3794 45.12076,230.0255 42.26954,228.3794 42.26954,225.0871 45.12076,223.4409 47.97197,225.0871 " style="fill:black;stroke:white;stroke-width:1"/>
<polygon points="36.57066,167.3517 34.03562,168.8153 31.50059,167.3517 31.50059,164.4245 34.03562,162.9609 36.57066,164.4245 " style="fill:black;stroke:white;stroke-width:1"/>
<polygon points="99.46487,103.1387 96.99834,104.5627 94.53181,103.1387 94.53181,100.2906 96.99834,98.86653 99.46487,100.2906 " style="fill:black;stroke:white;stroke-width:1"/>
<polygon points="37.85368,78.26398 35.69669,79.50932 33.5397,78.26398 33.5397,75.77331 35.69669,74.52797 37.85368,75.77331 " style="fill:black;stroke:white;stroke-width:1"/>
<polygon points="72.44308,282.572 70.49969,283.694 68.5563,282.572 68.5563,280.328 70.49969,279.206 72.44308,280.328 " style="fill:black;stroke:white;stroke-width:1"/>
<polygon points="39.34997,14.79333 37.60647,15.79994 35.86297,14.79333 35.86297,12.78011 37.60647,11.7735 39.34997,12.78011 " style="fill:black;stroke:white;stroke-width:1"/>
<polygon points="110.6549,67.43061 108.9866,68.39377 107.3184,67.43061 107.3184,65.5043 108.9866,64.54114 110.6549,65.5043 " style="fill:black;stroke:white;stroke-width:1"/>
<polygon points="95.39565,218.1266 93.7625,219.0695 92.12936,218.1266 92.12936,216.2408 93.7625,215.2979 95.39565,216.2408 " style="fill:black;stroke:white;stroke-width:1"/>
<polygon points="75.36256,56.05827 73.88229,56.91291 72.40202,56.05827 72.40202,54.34901 73.88229,53.49437 75.36256,54.34901 " style="fill:black;stroke:white;stroke-width:1"/>
<polygon points="89.08533,205.2012 87.67018,206.0183 86.25504,205.2012 86.25504,203.5672 87.67018,202.7501 89.08533,203.5672 " style="fill:black;stroke:white;stroke-width:1"/>
<polygon points="133.3769,145.3478 132.06,146.1081 130.7432,145.3478 130.7432,143.8272 132.06,143.067 133.3769,143.8272 " style="fill:black;stroke:white;stroke-width:1"/>
<polygon points="57.39595,270.6699 56.24219,271.336 55.08843,270.6699 55.08843,269.3376 56.24219,268.6715 57.39595,269.3376 " style="fill:black;stroke:white;stroke-width:1"/>
<polygon points="170.6328,293.5659 170.0816,293.8842 169.5304,293.5659 169.5304,292.9295 170.0816,292.6113 170.6328,292.9295 " style="fill:black;stroke:white;stroke-width:1"/>
<polygon points="160.8511,151.3269 160.5528,151.4991 160.2544,151.3269 160.2544,150.9824 160.5528,150.8101 160.8511,150.9824 " style="fill:black;stroke:white;stroke-width:1"/>
<polygon points="154.467,159.3976 154.179,159.5639 153.891,159.3976 153.891,159.065 154.179,158.8988 154.467,159.065 " style="fill:black;stroke:white;stroke-width:1"/>
<polygon points="181.2237,232.1908 180.9928,232.3241 180.762,232.1908 180.762,231.9242 180.9928,231.7909 181.2237,231.9242 " style="fill:black;stroke:white;stroke-width:1"/>
<polygon points="9.087279,265.164 8.867426,265.291 8.647573,265.164 8.647573,264.9102 8.867426,264.7832 9.087279,264.9102 " style="fill:black;stroke:white;stroke-width:1"/>
<polygon points="120.1101,38.17278 119.9281,38.27789 119.746,38.17278 119.746,37.96255 119.9281,37.85744 120.1101,37.96255 " style="fill:black;stroke:white;stroke-width:1"/>
<polygon points="3.833703,128.169 3.664203,128.2669 3.494702,128.169 3.494702,127.9733 3.664203,127.8754 3.833703,127.9733 " style="fill:black;stroke:white;stroke-width:1"/>
<polygon points="77.89781,265.9934 77.73904,266.085 77.58028,265.9934 77.58028,265.81 77.73904,265.7184 77.89781,265.81 " style="fill:black;stroke:white;stroke-width:1"/>
<polygon points="155.4712,145.081 155.3397,145.1569 155.2082,145.081 155.2082,144.9292 155.3397,144.8533 155.4712,144.9292 " style="fill:black;stroke:white;stroke-width:1"/>
<polygon points="185.2782,230.7288 185.1908,230.7793 185.1033,230.7288 185.1033,230.6279 185.1908,230.5774 185.2782,230.6279 " style="fill:black;stroke:white;stroke-width:1"/>
<polygon points="190.2516,205.6577 190.1887,205.694 190.1257,205.6577 190.1257,205.585 190.1887,205.5487 190.2516,205.585 " style="fill:black;stroke:white;stroke-width:1"/>
<polygon points="200.4333,286.2037 200.376,286.2368 200.3186,286.2037 200.3186,286.1375 200.376,286.1044 200.4333,286.1375 " style="fill:black;stroke:white;stroke-width:1"/>
<polygon points="185.4377,270.1684 185.3817,270.2007 185.3257,270.1684 185.3257,270.1038 185.3817,270.0715 185.4377,270.1038 " style="fill:black;stroke:white;stroke-width:1"/>
<polygon points="193.3771,246.9503 193.339,246.9723 193.3009,246.9503 193.3009,246.9063 193.339,246.8844 193.3771,246.9063 " style="fill:black;stroke:white;stroke-width:1"/>
<polygon points="229.4869,139.4259 229.463,139.4398 229.439,139.4259 229.439,139.3982 229.463,139.3844 229.4869,139.3982 " style="fill:black;stroke:white;stroke-width:1"/>
</svg>
