<?xml version="1.0" standalone="no"?>
<!DOCTYPE svg PUBLIC "-//W3C//DTD SVG 1.1//EN" 
"http://www.w3.org/Graphics/SVG/1.1/DTD/svg11.dtd">
<svg width="800px" height="300px" version="1.1" xmlns="http://www.w3.org/2000/svg">
<polygon points="24.99541,291.9521 16.91211,296.619 8.828813,291.9521 8.828813,282.6183 16.91211,277.9514 24.99541,282.6183 " style="fill:black;stroke:white;stroke-width:1"/>
<polygon points="60.0771,206.024 52.50525,210.3956 44.9334,206.024 44.9334,197.2808 52.50525,192.9092 60.0771,197.2808 " style="fill:black;stroke:white;stroke-width:1"/>
<polygon points="24.6971,185.6773 17.31046,189.942 9.923826,185.6773 9.923826,177.1479 17.31046,172.8833 24.6971,177.1479 " style="fill:black;stroke:white;stroke-width:1"/>
<polygon points="25.83926,112.834 18.5055,117.0682 11.17173,112.834 11.17173,104.3657 18.5055,100.1316 25.83926,104.3657 " style="fill:black;stroke:white;stroke-width:1"/>
<polygon points="19.65432,210.6743 12.45745,214.8294 5.260589,210.6743 5.260589,202.3641 12.45745,198.209 19.65432,202.3641 " style="fill:black;stroke:white;stroke-width:1"/>
<polygon points="43.44955,75.2123 37.20645,78.81676 30.96335,75.2123 30.96335,68.00338 37.20645,64.39893 43.44955,68.00338 " style="fill:black;stroke:white;stroke-width:1"/>
<polygon points="20.5838,247.2727 14.61401,250.7194 8.644218,247.2727 8.644218,240.3794 14.61401,236.9328 20.5838,240.3794 " style="fill:black;stroke:white;stroke-width:1"/>
<polygon points="66.90939,253.3383 61.25337,256.6038 55.59736,253.3383 55.59736,246.8073 61.25337,243.5418 66.90939,246.8073 " style="fill:black;stroke:white;stroke-width:1"/>
<polygon points="48.04482,20.36461 42.40084,23.62317 36.75687,20.36461 36.75687,13.84751 42.40084,10.58895 48.04482,13.84751 " style="fill:black;stroke:white;stroke-width:1"/>
<polygon points="97.80325,185.0745 92.6318,188.0602 87.46034,185.0745 87.46034,179.103 92.6318,176.1173 97.80325,179.103 " style="fill:black;stroke:white;stroke-width:1"/>
<polygon points="72.85466,230.9843 68.27867,233.6263 63.70268,230.9843 63.70268,225.7004 68.27867,223.0585 72.85466,225.7004 " style="fill:black;stroke:white;stroke-width:1"/>
<polygon points="64.31806,54.50347 60.08749,56.94599 55.85692,54.50347 55.85692,49.61843 60.08749,47.1759 64.31806,49.61843 " style="fill:black;stroke:white;stroke-width:1"/>
<polygon points="73.5201,73.95296 69.42418,76.31775 65.32825,73.95296 65.32825,69.2234 69.42418,66.85861 73.5201,69.2234 " style="fill:black;stroke:white;stroke-width:1"/>
<polygon points="39.13781,224.0292 35.53893,226.107 31.94005,224.0292 31.94005,219.8735 35.53893,217.7957 39.13781,219.8735 " style="fill:black;stroke:white;stroke-width:1"/>
<polygon points="59.66653,150.6717 56.2121,152.6661 52.75768,150.6717 52.75768,146.6829 56.2121,144.6885 59.66653,146.6829 " style="fill:black;stroke:white;stroke-width:1"/>
<polygon points="15.4842,11.77291 12.17889,13.68122 8.873592,11.77291 8.873592,7.956273 12.17889,6.047956 15.4842,7.956273 " style="fill:black;stroke:white;stroke-width:1"/>
<polygon points="82.23081,138.8425 78.99162,140.7126 75.75243,138.8425 75.75243,135.1022 78.99162,133.232 82.23081,135.1022 " style="fill:black;stroke:white;stroke-width:1"/>
<polygon points="111.8903,157.4716 109.0088,159.1353 106.1273,157.4716 106.1273,154.1443 109.0088,152.4807 111.8903,154.1443 " style="fill:black;stroke:white;stroke-width:1"/>
<polygon points="31.36065,38.55976 28.90079,39.97995 26.44094,38.55976 26.44094,35.71936 28.90079,34.29917 31.36065,35.71936 " style="fill:black;stroke:white;stroke-width:1"/>
<polygon points="15.62673,53.26348 13.69147,54.3808 11.75622,53.26348 11.75622,51.02884 13.69147,49.91151 15.62673,51.02884 " style="fill:black;stroke:white;stroke-width:1"/>
<polygon points="32.87125,150.2356 30.97018,151.3331 29.06911,150.2356 29.06911,148.0404 30.97018,146.9428 32.87125,148.0404 " style="fill:black;stroke:white;stroke-width:1"/>
<polygon points="117.0114,26.40937 115.1155,27.50393 113.2197,26.40937 113.2197,24.22023 115.1155,23.12567 117.0114,24.22023 " style="fill:black;stroke:white;stroke-width:1"/>
<polygon points="110.927,246.8637 109.0815,247.9292 107.2359,246.8637 107.2359,244.7326 109.0815,243.6671 110.927,244.7326 " style="fill:black;stroke:white;stroke-width:1"/>
<polygon points="53.1343,55.13144 51.537,56.05364 49.9397,55.13144 49.9397,53.28704 51.537,52.36483 53.1343,53.28704 " style="fill:black;stroke:white;stroke-width:1"/>
<polygon points="86.44591,265.3314 84.99064,266.1715 83.53537,265.3314 83.53537,263.6509 84.99064,262.8108 86.44591,263.6509 " style="fill:black;stroke:white;stroke-width:1"/>
<polygon points="84.41756,14.77982 82.98756,15.60544 81.55755,14.77982 81.55755,13.12859 82.98756,12.30298 84.41756,13.12859 " style="fill:black;stroke:white;stroke-width:1"/>
<polygon points="54.02293,297.5866 52.70519,298.3474 51.38745,297.5866 51.38745,296.065 52.70519,295.3042 54.02293,296.065 " style="fill:black;stroke:white;stroke-width:1"/>
<polygon points="90.06997,71.88052 88.755,72.63972 87.44004,71.88052 87.44004,70.36214 88.755,69.60294 90.06997,70.36214 " style="fill:black;stroke:white;stroke-width:1"/>
<polygon points="56.6428,109.8955 55.49305,110.5593 54.34329,109.8955 54.34329,108.5679 55.49305,107.9041 56.6428,108.5679 " style="fill:black;stroke:white;stroke-width:1"/>
<polygon points="23.20528,232.2094 22.06137,232.8698 20.91746,232.2094 20.91746,230.8885 22.06137,230.2281 23.20528,230.8885 " style="fill:black;stroke:white;stroke-width:1"/>
<polygon points="96.88529,4.043603 96.07047,4.514038 95.25565,4.043603 95.25565,3.102733 96.07047,2.632298 96.88529,3.102733 " style="fill:black;stroke:white;stroke-width:1"/>
<polygon points="52.73006,166.6862 51.96693,167.1268 51.20381,166.6862 51.20381,165.8051 51.96693,165.3645 52.73006,165.8051 " style="fill:black;stroke:white;stroke-width:1"/>
<polygon points="48.71165,278.4713 47.95298,278.9093 47.19431,278.4713 47.19431,277.5953 47.95298,277.1573 48.71165,277.5953 " style="fill:black;stroke:white;stroke-width:1"/>
<polygon points="44.30328,39.69058 43.58003,40.10815 42.85679,39.69058 42.85679,38.85545 43.58003,38.43789 44.30328,38.85545 " style="fill:black;stroke:white;stroke-width:1"/>
<polygon points="125.6823,127.0614 124.9639,127.4762 124.2455,127.0614 124.2455,126.2319 124.9639,125.8171 125.6823,126.2319 " style="fill:black;stroke:white;stroke-width:1"/>
<polygon points="165.8679,153.2796 165.1857,153.6734 164.5036,153.2796 164.5036,152.4919 165.1857,152.098 165.8679,152.4919 " style="fill:black;stroke:white;stroke-width:1"/>
<polygon points="170.4787,93.6765 170.0677,93.91379 169.6567,93.6765 169.6567,93.20193 170.0677,92.96465 170.4787,93.20193 " style="fill:black;stroke:white;stroke-width:1"/>
<polygon points="22.76328,58.32084 22.41057,58.52447 22.05785,58.32084 22.05785,57.91356 22.41057,57.70992 22.76328,57.91356 " style="fill:black;stroke:white;stroke-width:1"/>
<polygon points="67.87733,119.4878 67.57959,119.6597 67.28185,119.4878 67.28185,119.144 67.57959,118.9721 67.87733,119.144 " style="fill:black;stroke:white;stroke-width:1"/>
<polygon points="176.5745,221.5966 176.3241,221.7411 176.0738,221.5966 176.0738,221.3075 176.3241,221.1629 176.5745,221.3075 " style="fill:black;stroke:white;stroke-width:1"/>
<polygon points="116.1302,57.55137 115.8938,57.68789 115.6573,57.55137 115.6573,57.27831 115.8938,57.14179 116.1302,57.27831 " style="fill:black;stroke:white;stroke-width:1"/>
<polygon points="175.5251,135.2974 175.2924,135.4318 175.0596,135.2974 175.0596,135.0286 175.2924,134.8943 175.5251,135.0286 " style="fill:black;stroke:white;stroke-width:1"/>
<polygon points="71.54329,252.7732 71.32133,252.9013 71.09937,252.7732 71.09937,252.5169 71.32133,252.3887 71.54329,252.5169 " style="fill:black;stroke:white;stroke-width:1"/>
<polygon points="187.7684,179.7455 187.6313,179.8247 187.4942,179.7455 187.4942,179.5872 187.6313,179.508 187.7684,179.5872 " style="fill:black;stroke:white;stroke-width:1"/>
<polygon points="193.7703,37.37864 193.6759,37.43312 193.5815,37.37864 193.5815,37.26966 193.6759,37.21517 193.7703,37.26966 " style="fill:black;stroke:white;stroke-width:1"/>
<polygon points="202.8163,170.4977 202.7969,170.5089 202.7775,170.4977 202.7775,170.4753 202.7969,170.4641 202.8163,170.4753 " style="fill:black;stroke:white;stroke-width:1"/>
<polygon points="230.3993,208.9088 230.3814,208.9191 230.3636,208.9088 230.3636,208.8882 230.3814,208.8779 230.3993,208.8882 " style="fill:black;stroke:white;stroke-width:1"/>
<polygon points="211.4934,37.24222 211.4886,37.245 211.4838,37.24222 211.4838,37.23667 211.4886,37.23389 211.4934,37.23667 " style="fill:black;stroke:white;stroke-width:1"/>
</svg>
