<?xml version="1.0" standalone="no"?>
<!DOCTYPE svg PUBLIC "-//W3C//DTD SVG 1.1//EN" 
"http://www.w3.org/Graphics/SVG/1.1/DTD/svg11.dtd">
<svg width="800px" height="300px" version="1.1" xmlns="http://www.w3.org/2000/svg">
<polygon points="55.20929,241.8604 42.60801,249.1358 30.00673,241.8604 30.00673,227.3097 42.60801,220.0344 55.20929,227.3097 " style="fill:black;stroke:white;stroke-width:1"/>
<polygon points="36.35872,192.0849 24.24418,199.0792 12.12965,192.0849 12.12965,178.0962 24.24418,171.1019 36.35872,178.0962 " style="fill:black;stroke:white;stroke-width:1"/>
<polygon points="41.34175,128.8481 30.43191,135.1469 19.52207,128.8481 19.52207,116.2505 30.43191,109.9517 41.34175,116.2505 " style="fill:black;stroke:white;stroke-width:1"/>
<polygon points="27.46084,30.97611 17.20878,36.89514 6.956718,30.97611 6.956718,19.13805 17.20878,13.21902 27.46084,19.13805 " style="fill:black;stroke:white;stroke-width:1"/>
<polygon points="58.94482,25.54826 48.73026,31.44564 38.5157,25.54826 38.5157,13.7535 48.73026,7.856119 58.94482,13.7535 " style="fill:black;stroke:white;stroke-width:1"/>
<polygon points="54.40001,146.6532 45.42517,151.8348 36.45032,146.6532 36.45032,136.29 45.42517,131.1083 54.40001,136.29 " style="fill:black;stroke:white;stroke-width:1"/>
<polygon points="27.16903,89.75456 18.43746,94.79573 9.705895,89.75456 9.705895,79.67221 18.43746,74.63104 27.16903,79.67221 " style="fill:black;stroke:white;stroke-width:1"/>
<polygon points="21.67031,240.0719 13.61815,244.7209 5.565991,240.0719 5.565991,230.7741 13.61815,226.1252 21.67031,230.7741 " style="fill:black;stroke:white;stroke-width:1"/>
<polygon points="79.80666,108.5824 72.62115,112.7309 65.43565,108.5824 65.43565,100.2853 72.62115,96.13672 79.80666,100.2853 " style="fill:black;stroke:white;stroke-width:1"/>
<polygon points="73.15152,194.8052 66.81021,198.4664 60.4689,194.8052 60.4689,187.4829 66.81021,183.8218 73.15152,187.4829 " style="fill:black;stroke:white;stroke-width:1"/>
<polygon points="22.4794,270.0291 16.43329,273.5198 10.38717,270.0291 10.38717,263.0476 16.43329,259.5569 22.4794,263.0476 " style="fill:black;stroke:white;stroke-width:1"/>
<polygon points="44.63782,60.48634 40.32552,62.97604 36.01323,60.48634 36.01323,55.50693 40.32552,53.01723 44.63782,55.50693 " style="fill:black;stroke:white;stroke-width:1"/>
<polygon points="76.0182,53.75389 72.55547,55.7531 69.09274,53.75389 69.09274,49.75547 72.55547,47.75627 76.0182,49.75547 " style="fill:black;stroke:white;stroke-width:1"/>
<polygon points="54.26267,276.4762 50.8562,278.4429 47.44974,276.4762 47.44974,272.5427 50.8562,270.576 54.26267,272.5427 " style="fill:black;stroke:white;stroke-width:1"/>
<polygon points="108.905,165.0863 105.5953,166.9971 102.2855,165.0863 102.2855,161.2645 105.5953,159.3536 108.905,161.2645 " style="fill:black;stroke:white;stroke-width:1"/>
<polygon points="95.5088,265.6632 92.7306,267.2672 89.95239,265.6632 89.95239,262.4552 92.7306,260.8512 95.5088,262.4552 " style="fill:black;stroke:white;stroke-width:1"/>
<polygon points="94.27477,71.13434 92.7574,72.01039 91.24004,71.13434 91.24004,69.38223 92.7574,68.50618 94.27477,69.38223 " style="fill:black;stroke:white;stroke-width:1"/>
<polygon points="29.9536,288.4792 28.46537,289.3384 26.97715,288.4792 26.97715,286.7608 28.46537,285.9016 29.9536,286.7608 " style="fill:black;stroke:white;stroke-width:1"/>
<polygon points="10.98082,176.1799 10.11595,176.6793 9.251082,176.1799 9.251082,175.1813 10.11595,174.6819 10.98082,175.1813 " style="fill:black;stroke:white;stroke-width:1"/>
<polygon points="96.60027,129.6376 95.97704,129.9974 95.35381,129.6376 95.35381,128.918 95.97704,128.5581 96.60027,128.918 " style="fill:black;stroke:white;stroke-width:1"/>
<polygon points="15.00227,173.0402 14.72676,173.1992 14.45126,173.0402 14.45126,172.7221 14.72676,172.563 15.00227,172.7221 " style="fill:black;stroke:white;stroke-width:1"/>
<polygon points="83.36151,252.2421 83.10326,252.3912 82.84502,252.2421 82.84502,251.9439 83.10326,251.7948 83.36151,251.9439 " style="fill:black;stroke:white;stroke-width:1"/>
</svg>
