<?xml version="1.0" standalone="no"?>
<!DOCTYPE svg PUBLIC "-//W3C//DTD SVG 1.1//EN" 
"http://www.w3.org/Graphics/SVG/1.1/DTD/svg11.dtd">
<svg width="800px" height="300px" version="1.1" xmlns="http://www.w3.org/2000/svg">
<polygon points="32.32041,77.9021 23.20405,83.16544 14.08769,77.9021 14.08769,67.37544 23.20405,62.11211 32.32041,67.37544 " style="fill:black;stroke:white;stroke-width:1"/>
<polygon points="30.74617,254.3599 22.76372,258.9686 14.78126,254.3599 14.78126,245.1425 22.76372,240.5339 30.74617,245.1425 " style="fill:black;stroke:white;stroke-width:1"/>
<polygon points="23.88998,180.2257 16.09301,184.7273 8.296036,180.2257 8.296036,171.2225 16.09301,166.7209 23.88998,171.2225 " style="fill:black;stroke:white;stroke-width:1"/>
<polygon points="50.32409,223.5828 42.88831,227.8759 35.45253,223.5828 35.45253,214.9967 42.88831,210.7037 50.32409,214.9967 " style="fill:black;stroke:white;stroke-width:1"/>
<polygon points="23.55545,223.753 16.59463,227.7718 9.63381,223.753 9.63381,215.7153 16.59463,211.6965 23.55545,215.7153 " style="fill:black;stroke:white;stroke-width:1"/>
<polygon points="21.30538,279.8914 16.16231,282.8608 11.01924,279.8914 11.01924,273.9527 16.16231,270.9834 21.30538,273.9527 " style="fill:black;stroke:white;stroke-width:1"/>
<polygon points="48.07744,130.6311 43.04412,133.5371 38.0108,130.6311 38.0108,124.8192 43.04412,121.9132 48.07744,124.8192 " style="fill:black;stroke:white;stroke-width:1"/>
<polygon points="37.15527,133.7404 32.31943,136.5324 27.4836,133.7404 27.4836,128.1565 32.31943,125.3645 37.15527,128.1565 " style="fill:black;stroke:white;stroke-width:1"/>
<polygon points="66.2245,261.4921 61.71722,264.0944 57.20994,261.4921 57.20994,256.2875 61.71722,253.6852 66.2245,256.2875 " style="fill:black;stroke:white;stroke-width:1"/>
<polygon points="22.30411,111.5245 17.80706,114.1208 13.31,111.5245 13.31,106.3317 17.80706,103.7353 22.30411,106.3317 " style="fill:black;stroke:white;stroke-width:1"/>
<polygon points="85.06326,123.8332 81.08078,126.1325 77.0983,123.8332 77.0983,119.2347 81.08078,116.9354 85.06326,119.2347 " style="fill:black;stroke:white;stroke-width:1"/>
<polygon points="89.76699,172.0219 85.92474,174.2402 82.0825,172.0219 82.0825,167.5853 85.92474,165.3669 89.76699,167.5853 " style="fill:black;stroke:white;stroke-width:1"/>
<polygon points="29.10264,142.1139 25.57157,144.1526 22.0405,142.1139 22.0405,138.0366 25.57157,135.9979 29.10264,138.0366 " style="fill:black;stroke:white;stroke-width:1"/>
<polygon points="76.58035,298.2099 73.39718,300.0477 70.214,298.2099 70.214,294.5343 73.39718,292.6965 76.58035,294.5343 " style="fill:black;stroke:white;stroke-width:1"/>
<polygon points="67.9609,226.1273 64.90525,227.8914 61.8496,226.1273 61.8496,222.5989 64.90525,220.8347 67.9609,222.5989 " style="fill:black;stroke:white;stroke-width:1"/>
<polygon points="105.3981,32.33608 102.6678,33.91239 99.9376,32.33608 99.9376,29.18348 102.6678,27.60717 105.3981,29.18348 " style="fill:black;stroke:white;stroke-width:1"/>
<polygon points="115.9042,292.0188 113.2919,293.527 110.6797,292.0188 110.6797,289.0025 113.2919,287.4943 115.9042,289.0025 " style="fill:black;stroke:white;stroke-width:1"/>
<polygon points="53.08725,183.4707 50.75018,184.82 48.4131,183.4707 48.4131,180.7721 50.75018,179.4228 53.08725,180.7721 " style="fill:black;stroke:white;stroke-width:1"/>
<polygon points="23.00059,268.0202 20.73177,269.3301 18.46296,268.0202 18.46296,265.4004 20.73177,264.0905 23.00059,265.4004 " style="fill:black;stroke:white;stroke-width:1"/>
<polygon points="96.84988,20.60935 94.70336,21.84864 92.55685,20.60935 92.55685,18.13077 94.70336,16.89148 96.84988,18.13077 " style="fill:black;stroke:white;stroke-width:1"/>
<polygon points="10.76184,263.239 8.628902,264.4705 6.49596,263.239 6.49596,260.7761 8.628902,259.5446 10.76184,260.7761 " style="fill:black;stroke:white;stroke-width:1"/>
<polygon points="73.09349,252.5387 70.9735,253.7627 68.85352,252.5387 68.85352,250.0908 70.9735,248.8668 73.09349,250.0908 " style="fill:black;stroke:white;stroke-width:1"/>
<polygon points="8.165487,33.30356 6.052946,34.52324 3.940405,33.30356 3.940405,30.86421 6.052946,29.64453 8.165487,30.86421 " style="fill:black;stroke:white;stroke-width:1"/>
<polygon points="48.283,65.49254 46.25891,66.66114 44.23483,65.49254 44.23483,63.15532 46.25891,61.98671 48.283,63.15532 " style="fill:black;stroke:white;stroke-width:1"/>
<polygon points="106.7411,221.9814 104.7183,223.1492 102.6955,221.9814 102.6955,219.6457 104.7183,218.4778 106.7411,219.6457 " style="fill:black;stroke:white;stroke-width:1"/>
<polygon points="75.83619,108.3162 73.84152,109.4678 71.84686,108.3162 71.84686,106.0129 73.84152,104.8613 75.83619,106.0129 " style="fill:black;stroke:white;stroke-width:1"/>
<polygon points="107.539,196.0395 105.5906,197.1644 103.6422,196.0395 103.6422,193.7897 105.5906,192.6648 107.539,193.7897 " style="fill:black;stroke:white;stroke-width:1"/>
<polygon points="74.6721,126.655 72.93658,127.657 71.20106,126.655 71.20106,124.651 72.93658,123.649 74.6721,124.651 " style="fill:black;stroke:white;stroke-width:1"/>
<polygon points="45.34534,290.998 43.6418,291.9815 41.93826,290.998 41.93826,289.0309 43.6418,288.0474 45.34534,289.0309 " style="fill:black;stroke:white;stroke-width:1"/>
<polygon points="28.6174,186.5176 26.97981,187.4631 25.34223,186.5176 25.34223,184.6267 26.97981,183.6812 28.6174,184.6267 " style="fill:black;stroke:white;stroke-width:1"/>
<polygon points="57.7374,48.3673 56.17688,49.26827 54.61636,48.3673 54.61636,46.56537 56.17688,45.6644 57.7374,46.56537 " style="fill:black;stroke:white;stroke-width:1"/>
<polygon points="18.26994,11.62261 16.75479,12.49739 15.23963,11.62261 15.23963,9.873069 16.75479,8.998297 18.26994,9.873069 " style="fill:black;stroke:white;stroke-width:1"/>
<polygon points="21.71909,237.9745 20.26552,238.8137 18.81196,237.9745 18.81196,236.2961 20.26552,235.4568 21.71909,236.2961 " style="fill:black;stroke:white;stroke-width:1"/>
<polygon points="27.77958,47.41142 26.49162,48.15502 25.20366,47.41142 25.20366,45.92421 26.49162,45.1806 27.77958,45.92421 " style="fill:black;stroke:white;stroke-width:1"/>
<polygon points="23.7717,7.585443 22.49673,8.321549 21.22175,7.585443 21.22175,6.11323 22.49673,5.377124 23.7717,6.11323 " style="fill:black;stroke:white;stroke-width:1"/>
<polygon points="126.2935,215.2519 125.0297,215.9815 123.7659,215.2519 123.7659,213.7925 125.0297,213.0629 126.2935,213.7925 " style="fill:black;stroke:white;stroke-width:1"/>
<polygon points="91.38007,236.9045 90.20615,237.5823 89.03223,236.9045 89.03223,235.549 90.20615,234.8712 91.38007,235.549 " style="fill:black;stroke:white;stroke-width:1"/>
<polygon points="63.26844,27.48087 62.18386,28.10704 61.09929,27.48087 61.09929,26.22851 62.18386,25.60233 63.26844,26.22851 " style="fill:black;stroke:white;stroke-width:1"/>
<polygon points="8.795873,206.3164 7.737198,206.9276 6.678523,206.3164 6.678523,205.0939 7.737198,204.4827 8.795873,205.0939 " style="fill:black;stroke:white;stroke-width:1"/>
<polygon points="145.8969,71.90182 144.8915,72.48229 143.8861,71.90182 143.8861,70.74091 144.8915,70.16044 145.8969,70.74091 " style="fill:black;stroke:white;stroke-width:1"/>
<polygon points="117.1817,113.3797 116.2818,113.8993 115.382,113.3797 115.382,112.3406 116.2818,111.8211 117.1817,112.3406 " style="fill:black;stroke:white;stroke-width:1"/>
<polygon points="51.5992,0.5417538 50.7217,1.048376 49.84421,0.5417538 49.84421,-0.4714911 50.7217,-0.9781135 51.5992,-0.4714911 " style="fill:black;stroke:white;stroke-width:1"/>
<polygon points="147.4137,216.8096 146.5485,217.3091 145.6833,216.8096 145.6833,215.8106 146.5485,215.3111 147.4137,215.8106 " style="fill:black;stroke:white;stroke-width:1"/>
<polygon points="53.79107,293.8623 52.93391,294.3572 52.07674,293.8623 52.07674,292.8725 52.93391,292.3776 53.79107,292.8725 " style="fill:black;stroke:white;stroke-width:1"/>
<polygon points="162.4572,247.7919 161.7709,248.1881 161.0846,247.7919 161.0846,246.9994 161.7709,246.6032 162.4572,246.9994 " style="fill:black;stroke:white;stroke-width:1"/>
<polygon points="160.9602,189.9593 160.2969,190.3423 159.6335,189.9593 159.6335,189.1933 160.2969,188.8104 160.9602,189.1933 " style="fill:black;stroke:white;stroke-width:1"/>
<polygon points="74.39303,190.2554 73.75401,190.6243 73.115,190.2554 73.115,189.5175 73.75401,189.1486 74.39303,189.5175 " style="fill:black;stroke:white;stroke-width:1"/>
<polygon points="169.6998,130.2303 169.1902,130.5246 168.6806,130.2303 168.6806,129.6419 169.1902,129.3476 169.6998,129.6419 " style="fill:black;stroke:white;stroke-width:1"/>
<polygon points="158.2791,216.1417 157.7943,216.4216 157.3095,216.1417 157.3095,215.5819 157.7943,215.302 158.2791,215.5819 " style="fill:black;stroke:white;stroke-width:1"/>
<polygon points="29.80384,19.05909 29.38015,19.3037 28.95647,19.05909 28.95647,18.56986 29.38015,18.32524 29.80384,18.56986 " style="fill:black;stroke:white;stroke-width:1"/>
<polygon points="56.78604,64.8988 56.45539,65.0897 56.12473,64.8988 56.12473,64.51699 56.45539,64.32609 56.78604,64.51699 " style="fill:black;stroke:white;stroke-width:1"/>
<polygon points="93.3709,196.9098 93.10253,197.0647 92.83417,196.9098 92.83417,196.5999 93.10253,196.445 93.3709,196.5999 " style="fill:black;stroke:white;stroke-width:1"/>
<polygon points="19.50431,74.04514 19.25218,74.19071 19.00005,74.04514 19.00005,73.75401 19.25218,73.60844 19.50431,73.75401 " style="fill:black;stroke:white;stroke-width:1"/>
<polygon points="85.95605,25.38565 85.71944,25.52227 85.48282,25.38565 85.48282,25.11243 85.71944,24.97582 85.95605,25.11243 " style="fill:black;stroke:white;stroke-width:1"/>
<polygon points="35.10216,104.96 34.94811,105.0489 34.79406,104.96 34.79406,104.7821 34.94811,104.6931 35.10216,104.7821 " style="fill:black;stroke:white;stroke-width:1"/>
<polygon points="35.32399,183.6548 35.21307,183.7188 35.10216,183.6548 35.10216,183.5267 35.21307,183.4627 35.32399,183.5267 " style="fill:black;stroke:white;stroke-width:1"/>
<polygon points="101.6078,45.55394 101.5809,45.56946 101.554,45.55394 101.554,45.52289 101.5809,45.50737 101.6078,45.52289 " style="fill:black;stroke:white;stroke-width:1"/>
<polygon points="218.2817,245.3068 218.2561,245.3215 218.2305,245.3068 218.2305,245.2773 218.2561,245.2625 218.2817,245.2773 " style="fill:black;stroke:white;stroke-width:1"/>
<polygon points="60.07339,11.35434 60.05119,11.36716 60.02898,11.35434 60.02898,11.32869 60.05119,11.31587 60.07339,11.32869 " style="fill:black;stroke:white;stroke-width:1"/>
<polygon points="208.2448,166.9592 208.2253,166.9704 208.2058,166.9592 208.2058,166.9367 208.2253,166.9254 208.2448,166.9367 " style="fill:black;stroke:white;stroke-width:1"/>
<polygon points="217.2631,109.4191 217.2537,109.4245 217.2442,109.4191 217.2442,109.4082 217.2537,109.4028 217.2631,109.4082 " style="fill:black;stroke:white;stroke-width:1"/>
</svg>
