<?xml version="1.0" standalone="no"?>
<!DOCTYPE svg PUBLIC "-//W3C//DTD SVG 1.1//EN" 
"http://www.w3.org/Graphics/SVG/1.1/DTD/svg11.dtd">
<svg width="4000px" height="2000px" version="1.1" xmlns="http://www.w3.org/2000/svg">
<polygon points="2237.359,1667.695 2184.814,1698.032 2132.269,1667.695 2132.269,1607.021 2184.814,1576.684 2237.359,1607.021 " style="fill:black;stroke:white;stroke-width:1"/>
<polygon points="2634.54,1758.912 2583.946,1788.122 2533.352,1758.912 2533.352,1700.491 2583.946,1671.281 2634.54,1700.491 " style="fill:black;stroke:white;stroke-width:1"/>
<polygon points="2367.287,1585.953 2316.836,1615.08 2266.386,1585.953 2266.386,1527.697 2316.836,1498.57 2367.287,1527.697 " style="fill:black;stroke:white;stroke-width:1"/>
<polygon points="2262.938,1767.642 2218.867,1793.086 2174.796,1767.642 2174.796,1716.753 2218.867,1691.308 2262.938,1716.753 " style="fill:black;stroke:white;stroke-width:1"/>
<polygon points="2040.797,1306.277 1998.863,1330.487 1956.93,1306.277 1956.93,1257.856 1998.863,1233.646 2040.797,1257.856 " style="fill:black;stroke:white;stroke-width:1"/>
<polygon points="2336.722,1387.979 2297.144,1410.829 2257.565,1387.979 2257.565,1342.277 2297.144,1319.426 2336.722,1342.277 " style="fill:black;stroke:white;stroke-width:1"/>
<polygon points="2818.814,1936.229 2779.369,1959.003 2739.923,1936.229 2739.923,1890.681 2779.369,1867.907 2818.814,1890.681 " style="fill:black;stroke:white;stroke-width:1"/>
<polygon points="2150.713,1254.806 2114.039,1275.98 2077.364,1254.806 2077.364,1212.458 2114.039,1191.283 2150.713,1212.458 " style="fill:black;stroke:white;stroke-width:1"/>
<polygon points="1970.229,1783.464 1934.417,1804.14 1898.605,1783.464 1898.605,1742.111 1934.417,1721.435 1970.229,1742.111 " style="fill:black;stroke:white;stroke-width:1"/>
<polygon points="1885.655,963.2733 1851.693,982.8807 1817.732,963.2733 1817.732,924.0582 1851.693,904.4507 1885.655,924.0582 " style="fill:black;stroke:white;stroke-width:1"/>
<polygon points="2204.737,1455.433 2171.11,1474.847 2137.483,1455.433 2137.483,1416.604 2171.11,1397.19 2204.737,1416.604 " style="fill:black;stroke:white;stroke-width:1"/>
<polygon points="1624.628,1502.117 1591.364,1521.323 1558.099,1502.117 1558.099,1463.707 1591.364,1444.502 1624.628,1463.707 " style="fill:black;stroke:white;stroke-width:1"/>
<polygon points="2896.932,1761.639 2863.713,1780.818 2830.494,1761.639 2830.494,1723.281 2863.713,1704.102 2896.932,1723.281 " style="fill:black;stroke:white;stroke-width:1"/>
<polygon points="3262.704,1883.562 3230.005,1902.441 3197.306,1883.562 3197.306,1845.804 3230.005,1826.925 3262.704,1845.804 " style="fill:black;stroke:white;stroke-width:1"/>
<polygon points="2026.779,1839.693 1994.362,1858.409 1961.945,1839.693 1961.945,1802.26 1994.362,1783.544 2026.779,1802.26 " style="fill:black;stroke:white;stroke-width:1"/>
<polygon points="1936.184,1564.817 1904.059,1583.365 1871.933,1564.817 1871.933,1527.721 1904.059,1509.173 1936.184,1527.721 " style="fill:black;stroke:white;stroke-width:1"/>
<polygon points="3257.88,1430.646 3226.328,1448.863 3194.776,1430.646 3194.776,1394.214 3226.328,1375.997 3257.88,1394.214 " style="fill:black;stroke:white;stroke-width:1"/>
<polygon points="2353.584,1693.171 2322.299,1711.234 2291.013,1693.171 2291.013,1657.046 2322.299,1638.983 2353.584,1657.046 " style="fill:black;stroke:white;stroke-width:1"/>
<polygon points="2355.371,1137.997 2325.058,1155.499 2294.745,1137.997 2294.745,1102.995 2325.058,1085.494 2355.371,1102.995 " style="fill:black;stroke:white;stroke-width:1"/>
<polygon points="3226.158,1775.869 3196.192,1793.17 3166.226,1775.869 3166.226,1741.266 3196.192,1723.965 3226.158,1741.266 " style="fill:black;stroke:white;stroke-width:1"/>
<polygon points="2352.97,1831.004 2323.026,1848.292 2293.081,1831.004 2293.081,1796.427 2323.026,1779.138 2352.97,1796.427 " style="fill:black;stroke:white;stroke-width:1"/>
<polygon points="3232.469,1576.135 3202.881,1593.218 3173.292,1576.135 3173.292,1541.969 3202.881,1524.886 3232.469,1541.969 " style="fill:black;stroke:white;stroke-width:1"/>
<polygon points="2556.773,1138.904 2527.306,1155.917 2497.839,1138.904 2497.839,1104.878 2527.306,1087.865 2556.773,1104.878 " style="fill:black;stroke:white;stroke-width:1"/>
<polygon points="2529.397,1889.332 2500.639,1905.936 2471.881,1889.332 2471.881,1856.125 2500.639,1839.522 2529.397,1856.125 " style="fill:black;stroke:white;stroke-width:1"/>
<polygon points="2917.193,1495.263 2888.46,1511.852 2859.727,1495.263 2859.727,1462.085 2888.46,1445.496 2917.193,1462.085 " style="fill:black;stroke:white;stroke-width:1"/>
<polygon points="2662.745,1248.902 2634.566,1265.171 2606.388,1248.902 2606.388,1216.365 2634.566,1200.096 2662.745,1216.365 " style="fill:black;stroke:white;stroke-width:1"/>
<polygon points="2521.934,1621.368 2493.951,1637.524 2465.969,1621.368 2465.969,1589.057 2493.951,1572.901 2521.934,1589.057 " style="fill:black;stroke:white;stroke-width:1"/>
<polygon points="1075.651,1857.789 1048.095,1873.698 1020.54,1857.789 1020.54,1825.97 1048.095,1810.061 1075.651,1825.97 " style="fill:black;stroke:white;stroke-width:1"/>
<polygon points="2853.269,881.7443 2825.713,897.6535 2798.158,881.7443 2798.158,849.9257 2825.713,834.0164 2853.269,849.9257 " style="fill:black;stroke:white;stroke-width:1"/>
<polygon points="2922.778,1647.691 2895.312,1663.548 2867.846,1647.691 2867.846,1615.976 2895.312,1600.118 2922.778,1615.976 " style="fill:black;stroke:white;stroke-width:1"/>
<polygon points="2855.573,1861.729 2828.68,1877.256 2801.787,1861.729 2801.787,1830.676 2828.68,1815.149 2855.573,1830.676 " style="fill:black;stroke:white;stroke-width:1"/>
<polygon points="2840.776,1363.053 2814.609,1378.16 2788.442,1363.053 2788.442,1332.838 2814.609,1317.731 2840.776,1332.838 " style="fill:black;stroke:white;stroke-width:1"/>
<polygon points="2558.792,1418.647 2532.715,1433.702 2506.639,1418.647 2506.639,1388.536 2532.715,1373.481 2558.792,1388.536 " style="fill:black;stroke:white;stroke-width:1"/>
<polygon points="2456.255,1583.974 2430.187,1599.025 2404.118,1583.974 2404.118,1553.872 2430.187,1538.821 2456.255,1553.872 " style="fill:black;stroke:white;stroke-width:1"/>
<polygon points="1631.293,1618.711 1605.263,1633.74 1579.233,1618.711 1579.233,1588.655 1605.263,1573.626 1631.293,1588.655 " style="fill:black;stroke:white;stroke-width:1"/>
<polygon points="2771.491,1281.457 2745.678,1296.36 2719.865,1281.457 2719.865,1251.651 2745.678,1236.748 2771.491,1251.651 " style="fill:black;stroke:white;stroke-width:1"/>
<polygon points="2653.872,1588.695 2628.126,1603.559 2602.381,1588.695 2602.381,1558.967 2628.126,1544.103 2653.872,1558.967 " style="fill:black;stroke:white;stroke-width:1"/>
<polygon points="2981.301,963.4363 2955.566,978.2947 2929.831,963.4363 2929.831,933.7198 2955.566,918.8615 2981.301,933.7198 " style="fill:black;stroke:white;stroke-width:1"/>
<polygon points="3133.95,1247.121 3108.328,1261.914 3082.705,1247.121 3082.705,1217.535 3108.328,1202.742 3133.95,1217.535 " style="fill:black;stroke:white;stroke-width:1"/>
<polygon points="3049.041,1073.463 3024.563,1087.596 3000.084,1073.463 3000.084,1045.198 3024.563,1031.065 3049.041,1045.198 " style="fill:black;stroke:white;stroke-width:1"/>
<polygon points="2501.668,1714.143 2477.225,1728.255 2452.782,1714.143 2452.782,1685.919 2477.225,1671.807 2501.668,1685.919 " style="fill:black;stroke:white;stroke-width:1"/>
<polygon points="2272.794,1826.14 2248.622,1840.096 2224.449,1826.14 2224.449,1798.228 2248.622,1784.272 2272.794,1798.228 " style="fill:black;stroke:white;stroke-width:1"/>
<polygon points="1226.545,1099.13 1202.573,1112.97 1178.602,1099.13 1178.602,1071.451 1202.573,1057.611 1226.545,1071.451 " style="fill:black;stroke:white;stroke-width:1"/>
<polygon points="2467.099,1380.986 2443.203,1394.782 2419.307,1380.986 2419.307,1353.393 2443.203,1339.597 2467.099,1353.393 " style="fill:black;stroke:white;stroke-width:1"/>
<polygon points="2146.419,1937.455 2122.627,1951.191 2098.835,1937.455 2098.835,1909.982 2122.627,1896.246 2146.419,1909.982 " style="fill:black;stroke:white;stroke-width:1"/>
<polygon points="2515.377,1540.689 2492.617,1553.829 2469.857,1540.689 2469.857,1514.408 2492.617,1501.267 2515.377,1514.408 " style="fill:black;stroke:white;stroke-width:1"/>
<polygon points="2415.448,1729.833 2392.794,1742.911 2370.141,1729.833 2370.141,1703.675 2392.794,1690.596 2415.448,1703.675 " style="fill:black;stroke:white;stroke-width:1"/>
<polygon points="2429.24,1103.971 2406.843,1116.902 2384.446,1103.971 2384.446,1078.109 2406.843,1065.178 2429.24,1078.109 " style="fill:black;stroke:white;stroke-width:1"/>
<polygon points="2233.499,1219.775 2211.214,1232.641 2188.93,1219.775 2188.93,1194.043 2211.214,1181.178 2233.499,1194.043 " style="fill:black;stroke:white;stroke-width:1"/>
<polygon points="3426.466,710.7566 3404.186,723.6199 3381.906,710.7566 3381.906,685.03 3404.186,672.1667 3426.466,685.03 " style="fill:black;stroke:white;stroke-width:1"/>
<polygon points="1717.683,1915.574 1695.678,1928.279 1673.673,1915.574 1673.673,1890.165 1695.678,1877.461 1717.683,1890.165 " style="fill:black;stroke:white;stroke-width:1"/>
<polygon points="2673.725,1949.789 2651.759,1962.471 2629.793,1949.789 2629.793,1924.425 2651.759,1911.743 2673.725,1924.425 " style="fill:black;stroke:white;stroke-width:1"/>
<polygon points="2716.095,305.1015 2694.196,317.745 2672.297,305.1015 2672.297,279.8145 2694.196,267.1709 2716.095,279.8145 " style="fill:black;stroke:white;stroke-width:1"/>
<polygon points="2618.733,752.3433 2597.019,764.8803 2575.304,752.3433 2575.304,727.2693 2597.019,714.7324 2618.733,727.2693 " style="fill:black;stroke:white;stroke-width:1"/>
<polygon points="2057.758,916.2162 2036.439,928.5247 2015.12,916.2162 2015.12,891.5994 2036.439,879.291 2057.758,891.5994 " style="fill:black;stroke:white;stroke-width:1"/>
<polygon points="2548.597,813.3101 2527.55,825.4619 2506.502,813.3101 2506.502,789.0068 2527.55,776.855 2548.597,789.0068 " style="fill:black;stroke:white;stroke-width:1"/>
<polygon points="1663.77,1203.226 1642.808,1215.328 1621.847,1203.226 1621.847,1179.021 1642.808,1166.919 1663.77,1179.021 " style="fill:black;stroke:white;stroke-width:1"/>
<polygon points="1141.641,1365.116 1120.922,1377.078 1100.203,1365.116 1100.203,1341.193 1120.922,1329.231 1141.641,1341.193 " style="fill:black;stroke:white;stroke-width:1"/>
<polygon points="2702.785,846.02 2682.224,857.891 2661.663,846.02 2661.663,822.2781 2682.224,810.4071 2702.785,822.2781 " style="fill:black;stroke:white;stroke-width:1"/>
<polygon points="1998.712,1938.628 1978.237,1950.449 1957.761,1938.628 1957.761,1914.985 1978.237,1903.163 1998.712,1914.985 " style="fill:black;stroke:white;stroke-width:1"/>
<polygon points="1797.472,398.6202 1777.225,410.3099 1756.978,398.6202 1756.978,375.2409 1777.225,363.5512 1797.472,375.2409 " style="fill:black;stroke:white;stroke-width:1"/>
<polygon points="2249.326,1479.023 2229.215,1490.634 2209.105,1479.023 2209.105,1455.801 2229.215,1444.19 2249.326,1455.801 " style="fill:black;stroke:white;stroke-width:1"/>
<polygon points="2606.543,1437.179 2586.479,1448.763 2566.414,1437.179 2566.414,1414.01 2586.479,1402.425 2606.543,1414.01 " style="fill:black;stroke:white;stroke-width:1"/>
<polygon points="1278.01,851.527 1258.135,863.002 1238.26,851.527 1238.26,828.5771 1258.135,817.1022 1278.01,828.5771 " style="fill:black;stroke:white;stroke-width:1"/>
<polygon points="2861.418,1684.314 2841.66,1695.721 2821.902,1684.314 2821.902,1661.5 2841.66,1650.093 2861.418,1661.5 " style="fill:black;stroke:white;stroke-width:1"/>
<polygon points="2418.233,749.8115 2398.813,761.0242 2379.392,749.8115 2379.392,727.3861 2398.813,716.1734 2418.233,727.3861 " style="fill:black;stroke:white;stroke-width:1"/>
<polygon points="2517.998,1830.94 2498.863,1841.988 2479.727,1830.94 2479.727,1808.844 2498.863,1797.796 2517.998,1808.844 " style="fill:black;stroke:white;stroke-width:1"/>
<polygon points="1922.114,1462.807 1903.026,1473.828 1883.939,1462.807 1883.939,1440.767 1903.026,1429.747 1922.114,1440.767 " style="fill:black;stroke:white;stroke-width:1"/>
<polygon points="1826.981,1072.857 1807.99,1083.821 1789,1072.857 1789,1050.929 1807.99,1039.965 1826.981,1050.929 " style="fill:black;stroke:white;stroke-width:1"/>
<polygon points="2871.371,1561.673 2852.437,1572.604 2833.502,1561.673 2833.502,1539.809 2852.437,1528.878 2871.371,1539.809 " style="fill:black;stroke:white;stroke-width:1"/>
<polygon points="1907.945,1647.445 1889.085,1658.334 1870.226,1647.445 1870.226,1625.668 1889.085,1614.78 1907.945,1625.668 " style="fill:black;stroke:white;stroke-width:1"/>
<polygon points="2172.533,263.3118 2153.755,274.1534 2134.977,263.3118 2134.977,241.6287 2153.755,230.7871 2172.533,241.6287 " style="fill:black;stroke:white;stroke-width:1"/>
<polygon points="2375.67,1826.737 2356.931,1837.556 2338.192,1826.737 2338.192,1805.099 2356.931,1794.28 2375.67,1805.099 " style="fill:black;stroke:white;stroke-width:1"/>
<polygon points="1572.279,1790.608 1553.642,1801.368 1535.006,1790.608 1535.006,1769.088 1553.642,1758.328 1572.279,1769.088 " style="fill:black;stroke:white;stroke-width:1"/>
<polygon points="3699.832,1932.429 3681.494,1943.016 3663.155,1932.429 3663.155,1911.253 3681.494,1900.666 3699.832,1911.253 " style="fill:black;stroke:white;stroke-width:1"/>
<polygon points="2788.32,1328.407 2770.04,1338.961 2751.76,1328.407 2751.76,1307.299 2770.04,1296.745 2788.32,1307.299 " style="fill:black;stroke:white;stroke-width:1"/>
<polygon points="2649.844,1171.844 2631.591,1182.383 2613.337,1171.844 2613.337,1150.767 2631.591,1140.228 2649.844,1150.767 " style="fill:black;stroke:white;stroke-width:1"/>
<polygon points="1631.149,1320.39 1613.225,1330.738 1595.301,1320.39 1595.301,1299.693 1613.225,1289.345 1631.149,1299.693 " style="fill:black;stroke:white;stroke-width:1"/>
<polygon points="2400.85,1490.416 2382.936,1500.759 2365.022,1490.416 2365.022,1469.731 2382.936,1459.388 2400.85,1469.731 " style="fill:black;stroke:white;stroke-width:1"/>
<polygon points="2004.987,821.1555 1987.172,831.441 1969.357,821.1555 1969.357,800.5842 1987.172,790.2986 2004.987,800.5842 " style="fill:black;stroke:white;stroke-width:1"/>
<polygon points="3673.993,1056.58 3656.29,1066.801 3638.586,1056.58 3638.586,1036.138 3656.29,1025.917 3673.993,1036.138 " style="fill:black;stroke:white;stroke-width:1"/>
<polygon points="1588.91,1391.984 1571.318,1402.141 1553.726,1391.984 1553.726,1371.671 1571.318,1361.515 1588.91,1371.671 " style="fill:black;stroke:white;stroke-width:1"/>
<polygon points="2404.887,829.5363 2388.079,839.2404 2371.271,829.5363 2371.271,810.1281 2388.079,800.424 2404.887,810.1281 " style="fill:black;stroke:white;stroke-width:1"/>
<polygon points="1949.513,1685.042 1932.811,1694.684 1916.11,1685.042 1916.11,1665.756 1932.811,1656.114 1949.513,1665.756 " style="fill:black;stroke:white;stroke-width:1"/>
<polygon points="1778.832,1086.36 1762.445,1095.822 1746.058,1086.36 1746.058,1067.438 1762.445,1057.977 1778.832,1067.438 " style="fill:black;stroke:white;stroke-width:1"/>
<polygon points="2009.253,1492.681 1992.914,1502.114 1976.574,1492.681 1976.574,1473.814 1992.914,1464.38 2009.253,1473.814 " style="fill:black;stroke:white;stroke-width:1"/>
<polygon points="2738.876,1186.015 2723.085,1195.132 2707.293,1186.015 2707.293,1167.781 2723.085,1158.663 2738.876,1167.781 " style="fill:black;stroke:white;stroke-width:1"/>
<polygon points="3288.74,1583.707 3273.133,1592.717 3257.527,1583.707 3257.527,1565.687 3273.133,1556.676 3288.74,1565.687 " style="fill:black;stroke:white;stroke-width:1"/>
<polygon points="2123.651,1485.849 2108.079,1494.84 2092.507,1485.849 2092.507,1467.868 2108.079,1458.878 2123.651,1467.868 " style="fill:black;stroke:white;stroke-width:1"/>
<polygon points="3162.4,1110.339 3146.957,1119.255 3131.513,1110.339 3131.513,1092.507 3146.957,1083.591 3162.4,1092.507 " style="fill:black;stroke:white;stroke-width:1"/>
<polygon points="2206.249,847.3662 2190.821,856.2731 2175.394,847.3662 2175.394,829.5522 2190.821,820.6453 2206.249,829.5522 " style="fill:black;stroke:white;stroke-width:1"/>
<polygon points="2010.721,1410.49 1995.337,1419.373 1979.952,1410.49 1979.952,1392.726 1995.337,1383.844 2010.721,1392.726 " style="fill:black;stroke:white;stroke-width:1"/>
<polygon points="1129.096,1661.468 1113.817,1670.29 1098.538,1661.468 1098.538,1643.825 1113.817,1635.004 1129.096,1643.825 " style="fill:black;stroke:white;stroke-width:1"/>
<polygon points="2439.39,1810.487 2424.22,1819.245 2409.05,1810.487 2409.05,1792.97 2424.22,1784.212 2439.39,1792.97 " style="fill:black;stroke:white;stroke-width:1"/>
<polygon points="2446.904,1517.721 2431.934,1526.364 2416.963,1517.721 2416.963,1500.434 2431.934,1491.791 2446.904,1500.434 " style="fill:black;stroke:white;stroke-width:1"/>
<polygon points="2533.776,1375.127 2518.941,1383.692 2504.105,1375.127 2504.105,1357.996 2518.941,1349.431 2533.776,1357.996 " style="fill:black;stroke:white;stroke-width:1"/>
<polygon points="2256.252,1125.81 2241.584,1134.278 2226.917,1125.81 2226.917,1108.873 2241.584,1100.405 2256.252,1108.873 " style="fill:black;stroke:white;stroke-width:1"/>
<polygon points="3193.672,489.423 3179.048,497.8661 3164.424,489.423 3164.424,472.5367 3179.048,464.0935 3193.672,472.5367 " style="fill:black;stroke:white;stroke-width:1"/>
<polygon points="1334.526,764.3268 1319.933,772.7521 1305.34,764.3268 1305.34,747.4761 1319.933,739.0508 1334.526,747.4761 " style="fill:black;stroke:white;stroke-width:1"/>
<polygon points="2081.88,1928.572 2067.339,1936.967 2052.799,1928.572 2052.799,1911.782 2067.339,1903.387 2081.88,1911.782 " style="fill:black;stroke:white;stroke-width:1"/>
<polygon points="2411.766,1156.184 2397.391,1164.483 2383.017,1156.184 2383.017,1139.586 2397.391,1131.287 2411.766,1139.586 " style="fill:black;stroke:white;stroke-width:1"/>
<polygon points="1967.897,383.1802 1953.524,391.4785 1939.151,383.1802 1939.151,366.5836 1953.524,358.2853 1967.897,366.5836 " style="fill:black;stroke:white;stroke-width:1"/>
<polygon points="2417.85,1377.544 2403.63,1385.754 2389.41,1377.544 2389.41,1361.124 2403.63,1352.914 2417.85,1361.124 " style="fill:black;stroke:white;stroke-width:1"/>
<polygon points="2663.817,1654.239 2649.685,1662.398 2635.553,1654.239 2635.553,1637.921 2649.685,1629.762 2663.817,1637.921 " style="fill:black;stroke:white;stroke-width:1"/>
<polygon points="2666.278,1626.376 2652.168,1634.522 2638.059,1626.376 2638.059,1610.083 2652.168,1601.937 2666.278,1610.083 " style="fill:black;stroke:white;stroke-width:1"/>
<polygon points="2189.893,1157.484 2175.864,1165.584 2161.835,1157.484 2161.835,1141.285 2175.864,1133.186 2189.893,1141.285 " style="fill:black;stroke:white;stroke-width:1"/>
<polygon points="2378.112,1361.867 2364.32,1369.829 2350.529,1361.867 2350.529,1345.941 2364.32,1337.979 2378.112,1345.941 " style="fill:black;stroke:white;stroke-width:1"/>
<polygon points="2392.624,305.67 2378.889,313.5997 2365.155,305.67 2365.155,289.8107 2378.889,281.8811 2392.624,289.8107 " style="fill:black;stroke:white;stroke-width:1"/>
<polygon points="2217.39,741.3222 2203.875,749.1247 2190.361,741.3222 2190.361,725.7171 2203.875,717.9146 2217.39,725.7171 " style="fill:black;stroke:white;stroke-width:1"/>
<polygon points="3541.357,904.0898 3527.926,911.8446 3514.494,904.0898 3514.494,888.5804 3527.926,880.8257 3541.357,888.5804 " style="fill:black;stroke:white;stroke-width:1"/>
<polygon points="2681.413,1508.422 2668.028,1516.15 2654.643,1508.422 2654.643,1492.967 2668.028,1485.239 2681.413,1492.967 " style="fill:black;stroke:white;stroke-width:1"/>
<polygon points="2297.638,744.72 2284.296,752.423 2270.954,744.72 2270.954,729.3138 2284.296,721.6108 2297.638,729.3138 " style="fill:black;stroke:white;stroke-width:1"/>
<polygon points="3215.965,1229.893 3202.681,1237.563 3189.397,1229.893 3189.397,1214.555 3202.681,1206.885 3215.965,1214.555 " style="fill:black;stroke:white;stroke-width:1"/>
<polygon points="2137.341,768.6875 2124.103,776.3301 2110.866,768.6875 2110.866,753.4023 2124.103,745.7598 2137.341,753.4023 " style="fill:black;stroke:white;stroke-width:1"/>
<polygon points="2627.584,1497.765 2614.431,1505.359 2601.278,1497.765 2601.278,1482.578 2614.431,1474.984 2627.584,1482.578 " style="fill:black;stroke:white;stroke-width:1"/>
<polygon points="2400.294,1913.498 2387.469,1920.902 2374.644,1913.498 2374.644,1898.688 2387.469,1891.284 2400.294,1898.688 " style="fill:black;stroke:white;stroke-width:1"/>
<polygon points="2798.074,1464.177 2785.273,1471.567 2772.473,1464.177 2772.473,1449.396 2785.273,1442.006 2798.074,1449.396 " style="fill:black;stroke:white;stroke-width:1"/>
<polygon points="1601.774,1999.671 1589.053,2007.016 1576.331,1999.671 1576.331,1984.981 1589.053,1977.636 1601.774,1984.981 " style="fill:black;stroke:white;stroke-width:1"/>
<polygon points="1728.813,1178.984 1716.338,1186.187 1703.863,1178.984 1703.863,1164.58 1716.338,1157.377 1728.813,1164.58 " style="fill:black;stroke:white;stroke-width:1"/>
<polygon points="1451.359,646.0533 1438.981,653.1996 1426.603,646.0533 1426.603,631.7609 1438.981,624.6146 1451.359,631.7609 " style="fill:black;stroke:white;stroke-width:1"/>
<polygon points="1659.002,465.1913 1646.685,472.3021 1634.369,465.1913 1634.369,450.9696 1646.685,443.8587 1659.002,450.9696 " style="fill:black;stroke:white;stroke-width:1"/>
<polygon points="2427.354,1493.023 2415.038,1500.133 2402.721,1493.023 2402.721,1478.801 2415.038,1471.69 2427.354,1478.801 " style="fill:black;stroke:white;stroke-width:1"/>
<polygon points="2120.678,1983.522 2108.399,1990.612 2096.12,1983.522 2096.12,1969.344 2108.399,1962.254 2120.678,1969.344 " style="fill:black;stroke:white;stroke-width:1"/>
<polygon points="3757.95,1578.892 3745.745,1585.938 3733.541,1578.892 3733.541,1564.799 3745.745,1557.753 3757.95,1564.799 " style="fill:black;stroke:white;stroke-width:1"/>
<polygon points="2482.636,1095.068 2470.453,1102.102 2458.27,1095.068 2458.27,1081.001 2470.453,1073.967 2482.636,1081.001 " style="fill:black;stroke:white;stroke-width:1"/>
<polygon points="2423.54,1638.187 2411.643,1645.056 2399.745,1638.187 2399.745,1624.449 2411.643,1617.58 2423.54,1624.449 " style="fill:black;stroke:white;stroke-width:1"/>
<polygon points="1604.546,1267.441 1592.655,1274.307 1580.764,1267.441 1580.764,1253.711 1592.655,1246.846 1604.546,1253.711 " style="fill:black;stroke:white;stroke-width:1"/>
<polygon points="3233.562,511.6561 3221.746,518.4783 3209.929,511.6561 3209.929,498.0118 3221.746,491.1896 3233.562,498.0118 " style="fill:black;stroke:white;stroke-width:1"/>
<polygon points="3707.995,1444.246 3696.439,1450.918 3684.883,1444.246 3684.883,1430.903 3696.439,1424.231 3707.995,1430.903 " style="fill:black;stroke:white;stroke-width:1"/>
<polygon points="2784.222,813.1545 2772.714,819.7988 2761.206,813.1545 2761.206,799.8658 2772.714,793.2214 2784.222,799.8658 " style="fill:black;stroke:white;stroke-width:1"/>
<polygon points="1600.526,1734.61 1589.145,1741.181 1577.763,1734.61 1577.763,1721.467 1589.145,1714.896 1600.526,1721.467 " style="fill:black;stroke:white;stroke-width:1"/>
<polygon points="1581.613,664.5462 1570.365,671.0403 1559.117,664.5462 1559.117,651.558 1570.365,645.064 1581.613,651.558 " style="fill:black;stroke:white;stroke-width:1"/>
<polygon points="2405.589,1342.192 2394.467,1348.613 2383.345,1342.192 2383.345,1329.35 2394.467,1322.929 2405.589,1329.35 " style="fill:black;stroke:white;stroke-width:1"/>
<polygon points="2614.906,1645.845 2603.949,1652.171 2592.992,1645.845 2592.992,1633.193 2603.949,1626.866 2614.906,1633.193 " style="fill:black;stroke:white;stroke-width:1"/>
<polygon points="2895.096,1535.028 2884.41,1541.198 2873.724,1535.028 2873.724,1522.689 2884.41,1516.52 2895.096,1522.689 " style="fill:black;stroke:white;stroke-width:1"/>
<polygon points="1598.768,1855.138 1588.198,1861.241 1577.627,1855.138 1577.627,1842.933 1588.198,1836.83 1598.768,1842.933 " style="fill:black;stroke:white;stroke-width:1"/>
<polygon points="2862.522,1415.403 2852.116,1421.411 2841.71,1415.403 2841.71,1403.387 2852.116,1397.379 2862.522,1403.387 " style="fill:black;stroke:white;stroke-width:1"/>
<polygon points="3808.77,1674.853 3798.527,1680.767 3788.284,1674.853 3788.284,1663.026 3798.527,1657.112 3808.77,1663.026 " style="fill:black;stroke:white;stroke-width:1"/>
<polygon points="3115.393,1357.167 3105.244,1363.027 3095.096,1357.167 3095.096,1345.449 3105.244,1339.59 3115.393,1345.449 " style="fill:black;stroke:white;stroke-width:1"/>
<polygon points="2834.928,970.8304 2824.927,976.6046 2814.925,970.8304 2814.925,959.282 2824.927,953.5078 2834.928,959.282 " style="fill:black;stroke:white;stroke-width:1"/>
<polygon points="2586.734,1519.616 2576.873,1525.309 2567.013,1519.616 2567.013,1508.23 2576.873,1502.537 2586.734,1508.23 " style="fill:black;stroke:white;stroke-width:1"/>
<polygon points="1620.733,1708.053 1610.924,1713.716 1601.115,1708.053 1601.115,1696.726 1610.924,1691.063 1620.733,1696.726 " style="fill:black;stroke:white;stroke-width:1"/>
<polygon points="3259.171,1312.584 3249.423,1318.212 3239.676,1312.584 3239.676,1301.328 3249.423,1295.701 3259.171,1301.328 " style="fill:black;stroke:white;stroke-width:1"/>
<polygon points="2492.383,1217.674 2482.836,1223.186 2473.289,1217.674 2473.289,1206.651 2482.836,1201.139 2492.383,1206.651 " style="fill:black;stroke:white;stroke-width:1"/>
<polygon points="2515.662,301.1991 2506.568,306.4491 2497.475,301.1991 2497.475,290.6991 2506.568,285.4491 2515.662,290.6991 " style="fill:black;stroke:white;stroke-width:1"/>
<polygon points="2894.129,1373.845 2885.276,1378.956 2876.423,1373.845 2876.423,1363.623 2885.276,1358.511 2894.129,1363.623 " style="fill:black;stroke:white;stroke-width:1"/>
<polygon points="2459.217,811.1823 2450.605,816.1542 2441.994,811.1823 2441.994,801.2386 2450.605,796.2667 2459.217,801.2386 " style="fill:black;stroke:white;stroke-width:1"/>
<polygon points="3746.217,1208.944 3737.631,1213.901 3729.046,1208.944 3729.046,1199.03 3737.631,1194.073 3746.217,1199.03 " style="fill:black;stroke:white;stroke-width:1"/>
<polygon points="3015.926,347.6513 3007.411,352.5673 2998.896,347.6513 2998.896,337.8194 3007.411,332.9035 3015.926,337.8194 " style="fill:black;stroke:white;stroke-width:1"/>
<polygon points="2575.838,1098.47 2567.358,1103.366 2558.878,1098.47 2558.878,1088.679 2567.358,1083.783 2575.838,1088.679 " style="fill:black;stroke:white;stroke-width:1"/>
<polygon points="1032.762,1491.695 1024.478,1496.477 1016.194,1491.695 1016.194,1482.129 1024.478,1477.346 1032.762,1482.129 " style="fill:black;stroke:white;stroke-width:1"/>
<polygon points="3071.884,950.93 3063.775,955.6118 3055.666,950.93 3055.666,941.5662 3063.775,936.8844 3071.884,941.5662 " style="fill:black;stroke:white;stroke-width:1"/>
<polygon points="2610.822,1485.417 2603.087,1489.882 2595.352,1485.417 2595.352,1476.485 2603.087,1472.019 2610.822,1476.485 " style="fill:black;stroke:white;stroke-width:1"/>
<polygon points="524.735,671.9107 517.1019,676.3177 509.4687,671.9107 509.4687,663.0967 517.1019,658.6898 524.735,663.0967 " style="fill:black;stroke:white;stroke-width:1"/>
<polygon points="1987.6,1668.073 1980.2,1672.346 1972.8,1668.073 1972.8,1659.529 1980.2,1655.256 1987.6,1659.529 " style="fill:black;stroke:white;stroke-width:1"/>
<polygon points="2326.094,1093.137 2319.624,1096.872 2313.154,1093.137 2313.154,1085.666 2319.624,1081.93 2326.094,1085.666 " style="fill:black;stroke:white;stroke-width:1"/>
<polygon points="3100.892,1937.031 3094.86,1940.513 3088.827,1937.031 3088.827,1930.065 3094.86,1926.582 3100.892,1930.065 " style="fill:black;stroke:white;stroke-width:1"/>
<polygon points="2840.821,288.0973 2835.076,291.4144 2829.33,288.0973 2829.33,281.463 2835.076,278.1459 2840.821,281.463 " style="fill:black;stroke:white;stroke-width:1"/>
<polygon points="1979.966,1384.038 1974.352,1387.279 1968.738,1384.038 1968.738,1377.555 1974.352,1374.314 1979.966,1377.555 " style="fill:black;stroke:white;stroke-width:1"/>
<polygon points="2230.252,1085.982 2224.81,1089.123 2219.369,1085.982 2219.369,1079.699 2224.81,1076.557 2230.252,1079.699 " style="fill:black;stroke:white;stroke-width:1"/>
<polygon points="3656.149,1289.692 3651.198,1292.551 3646.247,1289.692 3646.247,1283.976 3651.198,1281.117 3656.149,1283.976 " style="fill:black;stroke:white;stroke-width:1"/>
<polygon points="404.9643,1477.203 400.4406,1479.815 395.917,1477.203 395.917,1471.98 400.4406,1469.368 404.9643,1471.98 " style="fill:black;stroke:white;stroke-width:1"/>
<polygon points="2693.212,923.6833 2688.762,926.2526 2684.312,923.6833 2684.312,918.5447 2688.762,915.9755 2693.212,918.5447 " style="fill:black;stroke:white;stroke-width:1"/>
<polygon points="1647.737,1094.559 1643.491,1097.011 1639.245,1094.559 1639.245,1089.656 1643.491,1087.205 1647.737,1089.656 " style="fill:black;stroke:white;stroke-width:1"/>
<polygon points="2922.681,421.2002 2918.461,423.6365 2914.241,421.2002 2914.241,416.3275 2918.461,413.8912 2922.681,416.3275 " style="fill:black;stroke:white;stroke-width:1"/>
<polygon points="2777.501,1739.534 2773.296,1741.962 2769.091,1739.534 2769.091,1734.678 2773.296,1732.25 2777.501,1734.678 " style="fill:black;stroke:white;stroke-width:1"/>
<polygon points="366.5624,1842.036 362.5415,1844.358 358.5206,1842.036 358.5206,1837.393 362.5415,1835.072 366.5624,1837.393 " style="fill:black;stroke:white;stroke-width:1"/>
<polygon points="2772.37,1871.244 2768.588,1873.427 2764.806,1871.244 2764.806,1866.876 2768.588,1864.693 2772.37,1866.876 " style="fill:black;stroke:white;stroke-width:1"/>
<polygon points="2788.842,1818.66 2785.124,1820.806 2781.406,1818.66 2781.406,1814.366 2785.124,1812.22 2788.842,1814.366 " style="fill:black;stroke:white;stroke-width:1"/>
<polygon points="3046.706,416.9703 3043.079,419.0646 3039.451,416.9703 3039.451,412.7816 3043.079,410.6872 3046.706,412.7816 " style="fill:black;stroke:white;stroke-width:1"/>
<polygon points="2485.938,1375.45 2482.705,1377.317 2479.472,1375.45 2479.472,1371.717 2482.705,1369.85 2485.938,1371.717 " style="fill:black;stroke:white;stroke-width:1"/>
<polygon points="2264.697,1190.824 2261.87,1192.456 2259.043,1190.824 2259.043,1187.559 2261.87,1185.927 2264.697,1187.559 " style="fill:black;stroke:white;stroke-width:1"/>
<polygon points="2347.922,190.5172 2345.296,192.0333 2342.67,190.5172 2342.67,187.4849 2345.296,185.9688 2347.922,187.4849 " style="fill:black;stroke:white;stroke-width:1"/>
<polygon points="1934.465,1430.021 1931.928,1431.485 1929.392,1430.021 1929.392,1427.092 1931.928,1425.628 1934.465,1427.092 " style="fill:black;stroke:white;stroke-width:1"/>
<polygon points="2240.371,826.9125 2237.859,828.3625 2235.348,826.9125 2235.348,824.0125 2237.859,822.5624 2240.371,824.0125 " style="fill:black;stroke:white;stroke-width:1"/>
<polygon points="2270.682,1374.136 2268.199,1375.57 2265.717,1374.136 2265.717,1371.27 2268.199,1369.836 2270.682,1371.27 " style="fill:black;stroke:white;stroke-width:1"/>
<polygon points="1963.202,1349.916 1960.873,1351.26 1958.545,1349.916 1958.545,1347.227 1960.873,1345.883 1963.202,1347.227 " style="fill:black;stroke:white;stroke-width:1"/>
<polygon points="3667.068,1739.028 3664.779,1740.349 3662.49,1739.028 3662.49,1736.385 3664.779,1735.063 3667.068,1736.385 " style="fill:black;stroke:white;stroke-width:1"/>
<polygon points="3107.623,1157.25 3105.554,1158.444 3103.485,1157.25 3103.485,1154.861 3105.554,1153.666 3107.623,1154.861 " style="fill:black;stroke:white;stroke-width:1"/>
<polygon points="3756.452,265.7361 3754.514,266.8549 3752.576,265.7361 3752.576,263.4983 3754.514,262.3794 3756.452,263.4983 " style="fill:black;stroke:white;stroke-width:1"/>
<polygon points="3201.24,1649.766 3199.453,1650.798 3197.665,1649.766 3197.665,1647.702 3199.453,1646.67 3201.24,1647.702 " style="fill:black;stroke:white;stroke-width:1"/>
<polygon points="1006.237,1501.478 1004.595,1502.426 1002.952,1501.478 1002.952,1499.581 1004.595,1498.633 1006.237,1499.581 " style="fill:black;stroke:white;stroke-width:1"/>
<polygon points="2689.589,1952.638 2688.081,1953.509 2686.572,1952.638 2686.572,1950.896 2688.081,1950.025 2689.589,1950.896 " style="fill:black;stroke:white;stroke-width:1"/>
<polygon points="1994.919,272.4004 1993.831,273.0286 1992.743,272.4004 1992.743,271.1438 1993.831,270.5156 1994.919,271.1438 " style="fill:black;stroke:white;stroke-width:1"/>
<polygon points="668.8502,390.2364 668.496,390.4408 668.1418,390.2364 668.1418,389.8274 668.496,389.623 668.8502,389.8274 " style="fill:black;stroke:white;stroke-width:1"/>
</svg>
