<?xml version="1.0" encoding="utf-8"?>
<!-- Generator: Adobe Illustrator 16.0.0, SVG Export Plug-In . SVG Version: 6.00 Build 0)  -->
<!DOCTYPE svg PUBLIC "-//W3C//DTD SVG 1.1//EN" "http://www.w3.org/Graphics/SVG/1.1/DTD/svg11.dtd">
<svg version="1.1" id="图层_1" xmlns="http://www.w3.org/2000/svg" xmlns:xlink="http://www.w3.org/1999/xlink" x="0px" y="0px"
	 width="1300px" height="500px" viewBox="0 0 1300 500" enable-background="new 0 0 1300 500" xml:space="preserve">
<g>
	<g>
		<polygon fill-rule="evenodd" clip-rule="evenodd" fill="#00344F" points="142.71,204.181 142.71,108.956 166.295,95.338 
			166.295,190.563 		"/>
		<polygon fill-rule="evenodd" clip-rule="evenodd" fill="#005E85" points="189.833,231.368 213.417,217.751 236.958,231.368 
			284.083,204.181 260.544,190.563 236.958,204.181 213.417,190.563 189.833,204.181 166.295,190.563 142.71,204.181 		"/>
		<path fill-rule="evenodd" clip-rule="evenodd" fill="#007C9F" d="M166.25,190.563l23.583-13.616c0-18.125,0-36.248,0-54.42
			l-23.538,13.616C166.25,154.268,166.25,172.438,166.25,190.563z"/>
		<path fill-rule="evenodd" clip-rule="evenodd" fill="#00749D" d="M213.417,190.563l-23.584-13.616c0-18.125,0-36.248,0-54.42
			l23.584,13.616C213.417,154.268,213.417,172.438,213.417,190.563z"/>
		<polygon fill-rule="evenodd" clip-rule="evenodd" fill="#00344F" points="284.083,204.181 284.083,108.956 260.544,95.338 
			260.544,190.563 		"/>
		<path fill-rule="evenodd" clip-rule="evenodd" fill="#00749D" d="M260.544,190.563l-23.586-13.616c0-18.125,0-36.248,0-54.42
			l23.586,13.616C260.544,154.268,260.544,172.438,260.544,190.563z"/>
		<path fill-rule="evenodd" clip-rule="evenodd" fill="#007C9F" d="M213.417,190.563l23.541-13.616c0-18.125,0-36.248,0-54.42
			l-23.541,13.616C213.417,154.268,213.417,172.438,213.417,190.563z"/>
	</g>
	<g>
		<polygon fill-rule="evenodd" clip-rule="evenodd" fill="#00344F" points="305.049,122.525 305.049,204.181 352.172,231.366 
			399.296,204.181 399.313,176.938 352.172,204.181 328.586,190.563 328.586,163.377 352.172,176.944 375.709,163.377 		"/>
		<polygon fill-rule="evenodd" clip-rule="evenodd" fill="#005E85" points="352.172,95.338 305.049,122.525 328.586,136.144 
			352.172,122.525 376.808,135.55 399.296,122.525 		"/>
		<polygon fill-rule="evenodd" clip-rule="evenodd" fill="#007C9F" points="328.586,163.377 352.172,176.944 352.172,204.181 
			328.586,190.563 		"/>
		<polygon fill-rule="evenodd" clip-rule="evenodd" fill="#00749D" points="375.71,163.377 352.172,176.944 352.172,204.181 
			375.71,190.563 		"/>
		<polygon fill-rule="evenodd" clip-rule="evenodd" fill="#005E85" points="305.049,122.525 375.71,163.377 352.172,176.944 
			305.049,149.759 		"/>
	</g>
	<path fill-rule="evenodd" clip-rule="evenodd" fill="#00344F" d="M426.07,210.988v-95.224l47.125-27.234l47.125,27.234v95.224
		l-23.585,13.569v-40.802l-23.54,13.616l-23.586-13.616v40.802L426.07,210.988L426.07,210.988z M496.734,156.569v-27.234
		l-23.54-13.57l-23.586,13.57v27.234l23.586,13.569L496.734,156.569z"/>
	<polygon fill-rule="evenodd" clip-rule="evenodd" fill="#005E85" points="496.734,129.334 520.319,115.765 473.194,88.53 
		426.07,115.765 449.608,129.334 473.194,115.765 	"/>
	<polygon fill-rule="evenodd" clip-rule="evenodd" fill="#00749D" points="449.608,129.334 473.194,142.952 473.194,170.138 
		449.608,156.569 	"/>
	<polygon fill-rule="evenodd" clip-rule="evenodd" fill="#007C9F" points="473.194,142.952 473.194,170.138 496.734,156.569 
		496.734,129.334 	"/>
	<g>
		<polygon fill-rule="evenodd" clip-rule="evenodd" fill="#00344F" points="642.131,224.558 642.131,197.372 595.588,170.138 
			572.004,183.753 		"/>
		<path fill-rule="evenodd" clip-rule="evenodd" fill="#00344F" d="M548.463,115.764c0,27.188,0,67.989,0,95.225l23.541,13.569
			v-40.805l23.584,13.619l47.123-27.234v-54.374l-23.539,13.569v27.234l-23.584,13.57l-23.584-13.57v-27.234L548.463,115.764z"/>
		<polygon fill-rule="evenodd" clip-rule="evenodd" fill="#005E85" points="595.588,88.53 548.463,115.764 572.004,129.333 
			595.588,115.764 619.172,129.333 642.71,115.764 		"/>
		<polygon fill-rule="evenodd" clip-rule="evenodd" fill="#007C9F" points="572.002,129.333 595.588,142.952 595.588,170.138 
			572.004,156.567 		"/>
		<polygon fill-rule="evenodd" clip-rule="evenodd" fill="#00749D" points="619.172,129.333 595.588,142.952 595.588,170.138 
			619.172,156.567 		"/>
	</g>
	<g>
		<polygon fill-rule="evenodd" clip-rule="evenodd" fill="#007C9F" points="317.286,265.761 293.745,279.38 293.745,333.801 
			317.286,320.181 		"/>
		<polygon fill-rule="evenodd" clip-rule="evenodd" fill="#00749D" points="270.161,265.761 293.745,279.38 293.745,333.801 
			270.161,320.181 		"/>
		<polygon fill-rule="evenodd" clip-rule="evenodd" fill="#005E85" points="293.745,224.959 340.871,252.145 317.286,265.761 
			293.745,252.145 270.161,265.761 246.623,252.145 		"/>
		<polygon fill-rule="evenodd" clip-rule="evenodd" fill="#00344F" points="305.516,367.795 329.054,354.178 317.286,347.37 
			340.871,333.801 340.871,252.145 317.286,265.761 317.286,320.181 293.745,333.801 270.161,320.181 270.161,265.761 
			246.623,252.145 246.623,333.801 		"/>
	</g>
	<g>
		<path fill-rule="evenodd" clip-rule="evenodd" fill="#00749D" d="M411.066,336.398l0.045-27.139
			c-11.845-6.854-17.655-10.147-23.583-13.614v-27.239l-23.586-13.616v54.421L411.066,336.398z"/>
		<polygon fill-rule="evenodd" clip-rule="evenodd" fill="#005E85" points="434.652,295.594 411.023,282.024 411.066,254.79 
			458.191,282.024 		"/>
		<polygon fill-rule="evenodd" clip-rule="evenodd" fill="#00344F" points="411.066,336.398 434.652,322.826 434.652,295.594 
			458.191,282.022 458.191,336.398 411.066,363.632 		"/>
		<polygon fill-rule="evenodd" clip-rule="evenodd" fill="#00344F" points="411.066,227.604 411.066,254.837 434.652,268.406 
			458.191,254.79 		"/>
		<polygon fill-rule="evenodd" clip-rule="evenodd" fill="#007C9F" points="363.941,254.79 387.528,268.406 411.066,254.837 
			411.066,227.604 		"/>
		<polygon fill-rule="evenodd" clip-rule="evenodd" fill="#00344F" points="411.066,336.398 387.528,322.826 363.941,336.398 
			411.066,363.632 		"/>
		<polygon fill-rule="evenodd" clip-rule="evenodd" fill="#007C9F" points="411.066,309.211 434.652,295.594 434.652,322.826 
			411.066,336.398 		"/>
		<polygon fill-rule="evenodd" clip-rule="evenodd" fill="#005E85" points="387.528,268.454 411.066,254.837 411.066,282.069 
			387.528,295.643 		"/>
	</g>
	<polygon fill-rule="evenodd" clip-rule="evenodd" fill="#00344F" points="489.222,254.838 489.221,336.493 536.344,363.679 
		583.473,336.493 583.728,309.138 536.344,336.493 512.806,322.877 512.807,268.455 	"/>
	<polygon fill-rule="evenodd" clip-rule="evenodd" fill="#005E85" points="536.346,227.651 489.222,254.838 512.807,268.455 
		536.346,254.838 559.931,268.455 583.473,254.838 	"/>
	<polygon fill-rule="evenodd" clip-rule="evenodd" fill="#00749D" points="512.806,322.877 536.344,309.259 536.344,254.838 
		512.806,268.455 	"/>
	<polygon fill-rule="evenodd" clip-rule="evenodd" fill="#007C9F" points="559.931,322.877 536.344,309.259 536.344,254.838 
		559.931,268.455 	"/>
</g>
</svg>
